<svg width="23" height="25" viewBox="0 0 23 25" fill="none" xmlns="http://www.w3.org/2000/svg">
    <g clip-path="url(#clip0_1_2340)">
        <g clip-path="url(#clip1_1_2340)">
            <path
                d="M3.024 8.37684C0.995019 11.8978 2.28488 17.2409 4.52861 20.4807C5.64858 22.1004 6.78248 23.5544 8.33556 23.5544C8.36483 23.5544 8.39418 23.5538 8.42424 23.5526C9.15392 23.5235 9.68121 23.2989 10.191 23.0818C10.7634 22.8378 11.3554 22.5856 12.2839 22.5856C13.1673 22.5856 13.731 22.8296 14.2761 23.0655C14.8134 23.298 15.3668 23.5385 16.1846 23.5231C17.934 23.4905 19.0081 21.9217 19.9557 20.5376C20.9446 19.0925 21.4407 17.6894 21.608 17.1532L21.6148 17.1319C21.6467 17.0366 21.6017 16.9326 21.5103 16.8906C21.5078 16.8894 21.4985 16.8856 21.4959 16.8845C21.1878 16.7585 18.4855 15.5597 18.4571 12.2922C18.4307 9.63759 20.4844 8.23182 20.8962 7.97703L20.9154 7.96506C20.96 7.93634 20.9911 7.89078 21.0017 7.83869C21.0122 7.78668 21.0012 7.73254 20.9713 7.68879C19.5538 5.6144 17.3812 5.30177 16.5065 5.26416C16.3796 5.25149 16.2486 5.24512 16.117 5.24512C15.0896 5.24512 14.1055 5.63313 13.3148 5.94489C12.769 6.16011 12.2976 6.34597 11.9725 6.34597C11.6071 6.34597 11.133 6.15783 10.584 5.94002C9.84984 5.64863 9.01771 5.31845 8.13679 5.31845C8.11578 5.31845 8.09508 5.31869 8.0747 5.31908C6.02644 5.34922 4.09102 6.52105 3.024 8.37684Z"
                fill="black" />
            <path
                d="M16.5081 -0.44565C15.2678 -0.395132 13.7798 0.368383 12.8905 1.41006C12.1347 2.28563 11.3964 3.74546 11.5909 5.21693C11.6031 5.309 11.678 5.38006 11.7706 5.38722C11.8543 5.39375 11.9398 5.39705 12.0249 5.39713C13.2377 5.39713 14.5461 4.72615 15.4396 3.64576C16.38 2.50493 16.8555 1.04086 16.7117 -0.270568C16.7004 -0.373335 16.6099 -0.449663 16.5081 -0.44565Z"
                fill="black" />
        </g>
    </g>
    <defs>
        <clipPath id="clip0_1_2340">
            <rect width="23" height="24" fill="white" transform="translate(0 0.311035)" />
        </clipPath>
        <clipPath id="clip1_1_2340">
            <rect width="19.6364" height="24" fill="white" transform="translate(2 -0.445801)" />
        </clipPath>
    </defs>
</svg>