<svg width="1440" height="649" viewBox="0 0 1440 649" fill="none" xmlns="http://www.w3.org/2000/svg">
    <path
        d="M1117.52 0.765578C1122.82 -0.304029 1124.73 -0.317605 1129.85 1.13765C1137.35 2.70078 1137.35 2.7006 1145.34 2.56636C1154.64 2.31694 1163.05 1.45404 1171.06 5.01851C1171.52 5.88622 1171.96 6.72905 1172.4 7.57124C1177 7.57124 1177 7.57093 1187.12 10.9736C1191.93 13.6486 1195.11 15.4167 1201.35 16.2373C1203.31 16.4362 1205.26 16.6661 1207.2 16.9287C1210.7 18.1635 1212.62 18.633 1216.7 18.8261C1219 18.8077 1219 18.8071 1221.26 18.789C1226.17 18.7711 1230.6 18.6973 1235.31 17.7792C1235.76 15.2119 1236.47 13.6884 1238.83 11.5585C1243.24 9.5645 1246.07 9.70162 1251.38 10.123C1254.7 11.8165 1256.54 12.6478 1260.78 13.2363C1265.24 13.5771 1269.69 13.9232 1274.13 14.3759C1278.57 15.4391 1282.03 16.0752 1286.8 16.1796C1289.46 16.1012 1292.12 16.0234 1294.78 15.956C1296.29 15.9181 1296.29 15.9179 1297.76 15.8808C1314.75 15.3967 1331.73 15.0936 1348.74 15.3427C1350.64 15.375 1352.54 15.4073 1354.44 15.4394C1365.72 15.5782 1376.24 16.0479 1387.15 17.9775C1388.32 18.1992 1389.45 18.4146 1390.59 18.6298C1397.4 19.862 1404.23 21.1222 1410.85 22.7275C1417.69 24.4722 1424.6 25.5321 1431.8 26.5449C1434.5 26.9164 1437.2 27.2924 1439.89 27.6748C1441.02 27.8352 1442.11 27.9917 1443.21 28.1474C1444.89 28.3824 1446.52 28.6097 1448.14 28.8378V30.54H1450.82C1450.63 33.9472 1450.63 33.9474 1451.94 37.2187C1456 48.3096 1457.2 59.0816 1457.46 70.4511C1457.48 71.3428 1457.5 72.2087 1457.51 73.0742C1457.76 82.1003 1457.53 91.0932 1457.03 100.115C1456.4 111.452 1456.03 122.775 1456.01 134.12C1456.01 135.27 1456.01 135.271 1456.01 136.398C1455.97 144.387 1456 152.347 1456.81 160.321C1457.46 166.639 1457.85 172.95 1458.11 179.279C1458.19 181.289 1458.26 183.3 1458.35 185.31C1459.22 204.567 1459.22 204.567 1458.36 265.493C1458.21 276.239 1458.06 286.986 1457.91 297.732C1457.91 298.348 1457.9 298.945 1457.89 299.543C1457.63 319.387 1457.42 339.232 1457.26 359.076C1457.16 370.442 1457.06 381.809 1456.97 393.175C1456.95 394.602 1456.94 396.03 1456.93 397.457C1456.62 433.295 1456.19 469.116 1454.66 504.943C1453.79 525.264 1453.41 545.571 1453.46 565.899C1453.46 567.11 1453.47 568.321 1453.47 569.531C1453.5 580.903 1453.53 592.274 1453.65 603.645C1453.69 608.143 1453.73 612.64 1453.76 617.138C1453.77 619.24 1453.78 621.342 1453.8 623.444C1453.84 626.408 1453.88 629.371 1453.9 632.335C1453.9 633.251 1453.91 634.14 1453.91 635.029C1454.03 640.1 1454.71 644.848 1449.48 648.998C1449.48 648.998 1449.48 648.999 1449.48 648.999H1097.73C1096.34 648.919 1094.95 648.836 1093.56 648.746C1086.06 648.255 1078.64 647.943 1071.1 647.911C1069.21 647.916 1069.21 647.917 1067.36 647.922C1064.56 647.918 1061.76 647.916 1058.96 647.915C1054.68 647.926 1050.41 647.935 1046.14 647.926C1043.28 647.919 1040.42 647.915 1037.56 647.916C1035.5 647.918 1035.5 647.919 1033.48 647.922C1027.41 647.905 1021.42 647.603 1015.86 648.999H-4.1109C-4.13791 648.999 -4.16495 648.998 -4.19196 648.998C-5.53037 647.297 -5.53003 647.297 -5.74176 645.486C-5.7632 644.711 -5.78443 643.958 -5.80524 643.206C-5.84611 641.891 -5.84624 641.89 -5.88629 640.602C-5.90932 639.632 -5.93132 638.691 -5.95367 637.75C-6.04148 634.649 -6.12671 631.547 -6.2027 628.445C-6.25681 626.222 -6.3139 623.998 -6.3736 621.774C-6.64319 611.786 -6.94152 601.797 -6.83942 591.808C-6.82983 591.105 -6.8204 590.423 -6.8111 589.741C-6.79278 588.391 -6.77437 587.041 -6.75543 585.691C-7.45481 550.743 -7.45503 550.742 -10.3697 515.833C-11.0064 507.993 -11.632 500.153 -12.2261 492.312C-12.2821 491.57 -12.3359 490.85 -12.3902 490.13C-13.7013 472.87 -14.3209 455.604 -14.8199 438.328C-14.8472 437.357 -14.8734 436.415 -14.9 435.473H-17.5777V432.921H-13.5621V430.368H-17.5777C-17.5777 427.816 -17.5774 427.816 -15.5699 426.381C-14.8874 426.001 -14.2245 425.633 -13.5621 425.265H-17.5777V422.712C-16.6675 422.423 -15.7834 422.142 -14.9 421.861C-14.2242 420.573 -14.2244 420.572 -13.5621 419.31H-17.5777V417.607H-14.9V415.906C-15.8102 415.328 -16.6942 414.766 -17.5777 414.205C-17.1226 413.627 -16.6805 413.065 -16.2388 412.504C-16.2388 409.91 -16.2708 407.516 -15.5699 404.954C-15.3423 404.339 -15.1208 403.742 -14.9 403.145H-17.5777V401.444H-14.9V398.042H-17.5777C-16.7417 395.12 -16.2389 392.52 -16.2388 389.535C-17.5774 386.983 -17.5779 386.982 -17.691 384.189C-17.6597 382.442 -17.6293 380.694 -17.6099 378.946C-17.6049 378.307 -17.5992 377.687 -17.5943 377.066C-17.5594 372.813 -17.7224 368.567 -17.9175 364.315C-18.0009 362.63 -18.0837 360.944 -18.1636 359.259C-18.5274 351.577 -18.9422 343.896 -19.3843 336.216C-19.4419 335.221 -19.4984 334.255 -19.5543 333.289C-19.6411 331.787 -19.641 331.786 -19.7261 330.313C-19.8432 328.288 -19.9597 326.262 -20.0767 324.236C-20.1371 323.19 -20.1958 322.175 -20.2545 321.16C-21.3939 301.462 -22.2487 281.765 -22.8511 262.058C-22.8785 261.146 -22.9057 260.262 -22.9322 259.378L-25.6089 258.527L-22.9322 256.826C-24.2709 255.124 -24.9316 253.567 -25.6089 251.722H-22.9322C-24.2975 250.565 -25.6227 249.441 -26.9478 248.318C-25.5959 247.03 -25.5953 247.03 -24.2701 245.767C-25.1803 245.477 -26.0644 245.197 -26.9478 244.916C-26.1617 242.795 -25.6003 240.89 -25.6812 238.706C-25.7952 238 -25.9065 237.313 -26.0172 236.628C-26.1389 235.787 -26.2564 234.971 -26.3746 234.155C-28.0322 222.931 -28.593 211.75 -28.8882 200.482C-29.1702 189.429 -29.3763 178.401 -30.6705 167.374C-32.0642 156.227 -32.5336 145.198 -32.3541 134.022C-32.228 126.924 -32.3323 119.918 -33.316 112.837C-33.5791 110.947 -33.7578 109.051 -33.9117 107.156C-33.933 106.27 -33.9545 105.41 -33.9752 104.551C-34.0922 101.577 -33.854 99.7603 -31.9879 97.0205C-29.6245 95.1928 -29.6241 95.1933 -26.7379 94.748C-25.6714 94.7909 -24.6363 94.8323 -23.6011 94.874C-19.8244 94.978 -17.1921 95.2749 -13.5621 96.0439C-7.01465 98.1675 -0.988607 99.6086 6.30804 100.424C15.7503 101.43 24.7323 102.535 33.2875 105.401C36.9917 107.173 40.2677 108.596 44.5815 109.708C59.5144 112.952 76.9991 115.002 91.5991 110.559C97.8688 108.465 101.514 107.649 108.581 108.219C115.39 108.865 119.822 108.426 126.287 107.019C147.249 102.256 168.436 103.064 190.171 105.029C191.444 105.156 192.679 105.279 193.914 105.401V103.7C196.391 101.427 198.541 99.7356 202.249 98.2636C205.747 96.9738 209.14 95.6046 212.533 94.207C219.879 91.1793 227.21 88.1237 234.793 85.3398C235.913 84.9297 237 84.5318 238.087 84.1337C249 79.6841 257.398 78.5124 270.139 78.9189C272.838 79.0065 275.542 79.0222 278.244 79.0292C282.259 77.3279 282.26 77.3282 284.995 77.1621C287.652 77.2174 290.31 77.2727 292.968 77.3281V75.6269C296.612 73.3113 298.529 72.2528 303.76 72.1171C305.097 72.1533 306.394 72.1885 307.692 72.2236C310.608 71.2478 312.449 70.5248 315.781 70.5126C316.757 70.6064 317.705 70.697 318.652 70.788C319.742 70.8841 320.799 70.978 321.857 71.0712C323.913 71.2634 325.974 71.4396 328.038 71.5957C329.028 71.6646 329.989 71.7319 330.95 71.7988C333.011 71.9548 335.074 72.0951 337.14 72.2236C345.256 72.425 351.798 72.1759 357.946 76.0156C361.869 78.6562 365.97 81.1507 370.604 83.2832C382.117 83.2217 382.117 83.222 393.36 80.7314C401.14 79.0001 407.543 78.0426 415.865 78.1259C420.281 78.2593 423.409 78.3543 427.561 77.3642C432.399 76.055 436.714 75.9391 441.929 75.9658C446.476 76.6061 447.805 77.5875 450.666 79.8798C452.03 81.0428 453.445 82.1839 454.933 83.2832C458.949 84.063 458.95 84.063 462.965 83.2832C471.839 80.5208 479.825 79.9182 489.736 80.7314C491.95 81.599 494.181 82.4507 496.429 83.2832C506.301 82.9174 514.828 79.9034 521.862 75.6269C525.519 72.3279 527.241 71.176 533.407 70.416C536.507 70.1923 536.508 70.1925 539.263 69.6718C541.94 67.12 541.94 67.1196 545.872 65.8437C549.818 64.7675 549.818 64.7678 551.979 63.3984C556.755 60.1101 560.067 58.0373 566.97 57.0644C573.884 56.7287 580.766 56.4983 587.493 55.3964C594.286 54.0251 599.941 53.3767 607.111 53.455C611.261 53.6195 611.261 53.62 615.56 53.5087C622.547 52.305 627.757 51.6306 634.963 52.1757C635.989 52.2672 636.985 52.3565 637.981 52.4453C641.136 52.6998 644.29 52.9597 647.44 53.2412C648.434 53.3321 649.398 53.4205 650.363 53.5087C655.746 53.9907 661.122 54.4456 666.425 55.2099C670.518 56.3768 672.992 56.9106 677.541 56.9277C684.504 56.6711 691.06 55.8754 696.626 58.9316C698.702 60.1533 698.703 60.1537 701.228 61.165C712.88 63.1864 728.161 64.4124 739.853 62.1152C744 61.1787 748.115 60.4773 752.381 59.8056C753.364 59.6531 754.319 59.5054 755.273 59.3574C757.207 59.0538 759.142 58.7496 761.077 58.4462C762.573 58.2135 764.026 57.9876 765.479 57.7617V56.0605C773.255 51.2089 780.199 48.0989 791.163 47.3408C797.472 47.0173 801.709 46.509 807.142 44.4169C810.204 43.0728 811.357 42.3502 815.079 42.7324C817.865 43.4037 817.866 43.4031 821.699 43.6191C825.913 43.5749 825.913 43.5751 828.224 41.4394C829.191 40.6259 830.13 39.8364 831.069 39.0468C838.178 35.0279 844.759 34.3203 854.077 34.247C866.32 34.2857 878.486 34.0661 890.641 33.1035C891.947 32.9909 893.215 32.8817 894.483 32.7724C900.393 32.2966 905.676 31.9653 910.968 30.164C914.058 28.8382 914.059 28.8385 918.331 27.7187C924.608 26.244 930.892 24.8808 936.815 22.8837V21.1816C939.679 18.9566 941.442 17.9055 945.85 17.1416C947.371 17.0342 947.371 17.0339 948.862 16.9287V15.2275L951.539 16.9287C954.781 16.9726 954.781 16.9726 958.231 16.0781C963.481 12.3662 967.63 11.0393 975.214 10.123C977.01 9.90982 978.8 9.6798 980.584 9.43159C985.227 8.71955 985.227 8.71942 986.853 6.28511C987.799 3.86028 988.41 2.98384 991.695 1.61616C999.12 1.18716 1003.04 2.04129 1009.25 4.38374C1015.43 6.72177 1020.46 8.33173 1027.84 8.42183C1034.21 6.76124 1038.52 6.75396 1045.24 7.57124C1054 8.82222 1062.45 9.55488 1071.43 9.80757C1072.94 9.84259 1074.4 9.87612 1075.86 9.91011C1077.39 9.95869 1078.88 10.0055 1080.37 10.0527C1081.85 10.09 1083.28 10.1269 1084.71 10.163C1088.61 10.2649 1091.32 10.3214 1094.94 9.38277C1095.79 9.05594 1096.62 8.73904 1097.44 8.42183C1098.23 8.12183 1099 7.8302 1099.77 7.53902C1100.55 7.22334 1101.31 6.91669 1102.07 6.6103C1103.82 5.92129 1105.57 5.23108 1107.31 4.53999C1110.65 3.18929 1113.98 1.89218 1117.52 0.765578Z"
        fill="#E7815D" />
</svg>