<svg width="23" height="25" viewBox="0 0 23 25" fill="none" xmlns="http://www.w3.org/2000/svg">
    <g clip-path="url(#clip0_1_2324)">
        <path
            d="M12.7463 12.3162L1.0379 23.8241C0.478275 23.3038 0.175842 22.5902 0.175842 21.8169V3.76723C0.175842 2.97928 0.493491 2.26546 1.06833 1.73047L12.7463 12.3162Z"
            fill="#2299F8" />
        <path
            d="M22.8662 12.7922C22.8662 13.8331 22.2911 14.7548 21.338 15.2755L18.0106 17.0892L13.8808 13.3423L12.7463 12.3164L17.1179 8.01953L21.338 10.3092C22.2911 10.83 22.8662 11.7516 22.8662 12.7922Z"
            fill="#FFC107" />
        <path
            d="M12.7463 12.3166L1.06836 1.73082C1.21955 1.58187 1.41639 1.44819 1.61302 1.32927C2.56587 0.764345 3.7156 0.749231 4.69867 1.28477L17.1179 8.01964L12.7463 12.3166Z"
            fill="#5ACF5F" />
        <path
            d="M18.0106 17.0892L4.69864 24.3001C4.22986 24.5679 3.7001 24.6866 3.18592 24.6866C2.64151 24.6866 2.09705 24.5529 1.613 24.2557C1.40089 24.1367 1.20431 23.988 1.0379 23.8244L12.7463 12.3164L13.8807 13.3422L18.0106 17.0892Z"
            fill="#F84437" />
    </g>
    <defs>
        <clipPath id="clip0_1_2324">
            <rect width="23" height="24" fill="white" transform="translate(0 0.811035)" />
        </clipPath>
    </defs>
</svg>