<svg width="475" height="684" viewBox="0 0 475 684" fill="none" xmlns="http://www.w3.org/2000/svg">
    <path fill-rule="evenodd" clip-rule="evenodd"
        d="M180.613 448.396C171.355 418.533 126.871 430.443 105.646 412.227C65.1154 377.443 -3.93411 363.451 0.36572 293.707C4.40433 228.2 62.1116 124.829 125.151 95.8625C201.411 60.8208 223.724 178.364 298.735 156.605C355.968 140.003 391.39 18.762 448.645 2.02427C498.801 -12.638 506.419 55.8188 531.727 88.4938C560.984 126.268 620.788 144.631 608.703 208.674C596.555 273.056 515.404 322.218 475.674 385.54C435.17 450.096 428.311 527.206 374.963 581.214C318.665 638.207 229.624 705.653 187.743 677.031C136.39 641.937 201.197 514.79 180.613 448.396Z"
        fill="#FF5A00" fill-opacity="0.35" />
</svg>