<svg width="794" height="815" viewBox="0 0 794 815" fill="none" xmlns="http://www.w3.org/2000/svg">
    <path fill-rule="evenodd" clip-rule="evenodd"
        d="M147.177 483.024C154.873 439.228 90.8581 425.384 75.8457 388.546C47.1777 318.2 -31.0806 255.622 19.6869 170.186C67.3701 89.9393 207.556 -3.32626 306.131 0.999029C425.379 6.23143 377.213 169.433 486.25 190.658C569.443 206.852 693.05 76.4944 776.36 92.5314C849.34 106.58 814.486 198.133 825.266 255.917C837.729 322.719 901.451 384.817 844.54 457.982C787.328 531.533 652.715 540.986 561.3 595.272C468.104 650.615 409.312 743.707 306.723 777.358C198.461 812.871 41.9837 840.324 7.6026 776.897C-34.5539 699.125 130.067 580.395 147.177 483.024Z"
        fill="#FF5A00" fill-opacity="0.35" />
</svg>