<svg width="645" height="973" viewBox="0 0 645 973" fill="none" xmlns="http://www.w3.org/2000/svg">
    <path fill-rule="evenodd" clip-rule="evenodd"
        d="M33.5256 638.112C20.358 595.639 -42.9092 612.578 -73.096 586.671C-130.741 537.2 -228.947 517.299 -222.831 418.105C-217.087 324.938 -135.013 177.92 -45.3559 136.722C63.1045 86.8838 94.8389 254.059 201.524 223.112C282.924 199.5 333.302 27.0656 414.733 3.26044C486.068 -17.5929 496.901 79.7696 532.896 126.242C574.507 179.966 659.563 206.083 642.376 297.168C625.097 388.734 509.68 458.656 453.175 548.716C395.568 640.53 385.813 750.199 309.939 827.011C229.869 908.071 103.23 1003.99 43.665 963.288C-29.3713 913.375 62.801 732.541 33.5256 638.112Z"
        fill="#FF5A00" fill-opacity="0.35" />
</svg>