<svg width="24" height="27" viewBox="0 0 24 27" fill="none" xmlns="http://www.w3.org/2000/svg">
<path d="M0.518264 11.9425C0.517702 13.9736 1.04842 15.9569 2.05757 17.7049L0.421753 23.6775L6.53399 22.0749C8.22456 22.9952 10.1187 23.4774 12.0435 23.4776H12.0486C18.4029 23.4776 23.5754 18.3069 23.5781 11.9516C23.5793 8.87192 22.3811 5.97602 20.2041 3.79731C18.0274 1.61879 15.1326 0.418398 12.0481 0.416992C5.69313 0.416992 0.520981 5.58736 0.518358 11.9425" fill="url(#paint0_linear_1_4588)"/>
<path d="M0.107095 11.9389C0.106439 14.0431 0.656177 16.0973 1.70131 17.9079L0.00683594 24.0947L6.33824 22.4346C8.08274 23.3857 10.0469 23.8872 12.0455 23.888H12.0507C18.6329 23.888 23.9912 18.5313 23.994 11.9484C23.9952 8.75814 22.7538 5.75814 20.499 3.50138C18.2439 1.2449 15.2455 0.0013118 12.0507 0C5.4673 0 0.109719 5.35589 0.107095 11.9389ZM3.87768 17.5961L3.64127 17.2208C2.64749 15.6407 2.12296 13.8147 2.12371 11.9396C2.12577 6.46802 6.57877 2.01642 12.0544 2.01642C14.7061 2.01755 17.1982 3.05125 19.0725 4.92674C20.9468 6.80243 21.9782 9.29579 21.9775 11.9477C21.9751 17.4193 17.522 21.8714 12.0507 21.8714H12.0467C10.2652 21.8705 8.51798 21.3921 6.99423 20.488L6.63161 20.2729L2.87443 21.258L3.87768 17.5961Z" fill="url(#paint1_linear_1_4588)"/>
<path d="M9.06511 6.94787C8.84154 6.45098 8.60626 6.44095 8.39366 6.43224C8.21956 6.42474 8.02054 6.4253 7.82171 6.4253C7.62269 6.4253 7.29934 6.50017 7.02601 6.7986C6.75241 7.09732 5.98145 7.81918 5.98145 9.28737C5.98145 10.7556 7.05084 12.1745 7.19992 12.3738C7.34918 12.5728 9.26441 15.6821 12.2977 16.8783C14.8186 17.8723 15.3316 17.6746 15.8787 17.6248C16.4259 17.5751 17.6444 16.9031 17.893 16.2063C18.1417 15.5095 18.1417 14.9123 18.0671 14.7875C17.9926 14.6631 17.7935 14.5884 17.4951 14.4393C17.1967 14.2901 15.7294 13.5681 15.4559 13.4684C15.1823 13.3689 14.9834 13.3193 14.7844 13.6181C14.5854 13.9164 14.0139 14.5884 13.8397 14.7875C13.6657 14.987 13.4915 15.0118 13.1932 14.8625C12.8945 14.7128 11.9335 14.398 10.7932 13.3815C9.90607 12.5905 9.30714 11.6137 9.13304 11.3148C8.95895 11.0165 9.1144 10.8548 9.26404 10.7061C9.39812 10.5724 9.56256 10.3576 9.71192 10.1834C9.86072 10.0091 9.91038 9.8848 10.0099 9.68578C10.1095 9.48657 10.0596 9.31229 9.98515 9.16303C9.91038 9.01376 9.33047 7.5379 9.06511 6.94787Z" fill="white"/>
<defs>
<linearGradient id="paint0_linear_1_4588" x1="1158.24" y1="2326.47" x2="1158.24" y2="0.416992" gradientUnits="userSpaceOnUse">
<stop stop-color="#1FAF38"/>
<stop offset="1" stop-color="#60D669"/>
</linearGradient>
<linearGradient id="paint1_linear_1_4588" x1="1199.37" y1="2409.47" x2="1199.37" y2="0" gradientUnits="userSpaceOnUse">
<stop stop-color="#F9F9F9"/>
<stop offset="1" stop-color="white"/>
</linearGradient>
</defs>
</svg>
