<svg width="105" height="105" viewBox="0 0 105 105" fill="none" xmlns="http://www.w3.org/2000/svg">
    <path
        d="M61.3598 32.761V67.2904C61.3598 67.5665 61.5056 67.8173 61.7399 67.9632C66.8285 71.1239 70.2187 76.7667 70.2187 83.2008C70.2187 93.4762 61.563 101.729 51.1485 101.082C42.1438 100.522 34.8512 93.133 34.4001 84.1235C34.0588 77.3092 37.5258 71.2746 42.8565 67.9642C43.0908 67.8193 43.2356 67.5675 43.2356 67.2923V32.761H61.3598Z"
        fill="url(#paint0_linear_1_4062)" />
    <path
        d="M52.7233 104.227C41.5875 104.227 32.5556 95.2253 32.0218 84.5784C31.6621 77.4161 35.025 70.6008 40.8535 66.5262V13.2873C40.8535 6.92707 45.6952 1.61387 51.8765 1.19193C58.9329 0.699011 64.565 6.33693 64.565 13.0141V66.5243C70.1329 70.4044 73.4239 76.6762 73.4239 83.5158C73.4239 94.7498 64.3365 104.227 52.7233 104.227ZM52.2567 6.7647C48.9949 6.98734 46.4399 9.85248 46.4399 13.2873V67.6073C46.4399 68.8547 45.804 69.9941 44.7385 70.6543C40.0602 73.5603 37.3243 78.7889 37.6014 84.2994C37.9806 91.8555 44.1882 98.141 51.7327 98.6105C60.5002 99.1608 67.8365 92.2357 67.8365 83.5168C67.8365 78.2464 65.16 73.4368 60.6761 70.6523C59.6115 69.9903 58.9767 68.8528 58.9767 67.6073V13.0141C58.9786 9.43248 55.9686 6.51484 52.2567 6.7647Z"
        fill="#BCC4D1" />
    <path
        d="M52.3122 103.911C41.1764 103.911 32.1444 94.9093 31.6107 84.2625C31.251 77.1001 34.6139 70.2848 40.4424 66.2103V12.9714C40.4424 6.6111 45.284 1.2979 51.4654 0.875956C58.5208 0.384012 64.1539 6.02193 64.1539 12.6992V66.2093C69.7218 70.0894 73.0128 76.3612 73.0128 83.2008C73.0118 94.4348 63.9244 103.911 52.3122 103.911ZM51.8455 6.44971C48.5837 6.67234 46.0287 9.53748 46.0287 12.9714V67.2914C46.0287 68.5387 45.3929 69.6782 44.3274 70.3383C39.649 73.2433 36.9132 78.4729 37.1903 83.9835C37.5694 91.5396 43.7771 97.825 51.3215 98.2946C60.089 98.8448 67.4254 91.9197 67.4254 83.2018C67.4254 77.9314 64.7489 73.1218 60.265 70.3373C59.2004 69.6753 58.5655 68.5378 58.5655 67.2923V12.6992C58.5665 9.11651 55.5565 6.19887 51.8455 6.44971Z"
        fill="url(#paint1_linear_1_4062)" />
    <path
        d="M31.6107 84.2625C31.4075 80.7712 32.1046 77.2255 33.6271 74.0619C35.134 70.8886 37.5004 68.1353 40.3743 66.1121L40.3228 66.2103C40.3111 52.5574 40.1993 38.9044 40.2703 25.2515L40.2965 15.0121C40.3004 13.3185 40.2469 11.5675 40.7068 9.89333C41.1336 8.22402 41.9016 6.63638 42.9847 5.29472C45.1129 2.58805 48.4476 0.82541 51.9039 0.780688C55.3446 0.658188 58.7823 2.1418 61.0476 4.70652C58.7425 2.1768 55.3028 0.76416 51.9087 0.936244C48.506 1.04805 45.2461 2.76888 43.1704 5.44249C42.1146 6.76374 41.3718 8.32416 40.9625 9.95944C40.5221 11.5986 40.5823 13.3039 40.5872 15.013L40.6144 25.2525C40.6854 38.9054 40.5736 52.5583 40.5619 66.2112V66.2744L40.5104 66.3104C37.6501 68.2908 35.3246 71.0189 33.768 74.1339C32.2115 77.2479 31.459 80.7683 31.6107 84.2625Z"
        fill="#FAFFFF" />
    <path
        d="M60.265 70.3364C59.284 69.756 58.6064 68.6807 58.5247 67.5257L58.4693 64.1122L58.4343 57.2911L58.3672 43.6489C58.4372 34.5537 58.3944 25.4596 58.5665 16.3644C58.7386 25.4596 58.6948 34.5537 58.7658 43.6489L58.6987 57.2911L58.6637 64.1122L58.6229 67.5199C58.6695 68.6447 59.3015 69.7268 60.265 70.3364Z"
        fill="#FAFFFF" />
    <path
        d="M42.2524 94.4475C44.4604 96.3239 47.166 97.5849 50.0059 98.0165C52.8497 98.3937 55.8013 98.0262 58.3981 96.809C59.7019 96.2315 60.9454 95.4887 62.0255 94.5457C63.1319 93.6357 64.0934 92.5478 64.8731 91.3442C66.4754 88.9544 67.3086 86.0913 67.4262 83.2008C67.467 86.0942 66.7165 89.0429 65.0958 91.4881C64.3209 92.7257 63.3574 93.8496 62.2413 94.7975C61.1515 95.7775 59.8915 96.5611 58.5605 97.1717C55.8742 98.3801 52.8536 98.7068 49.9651 98.2771C48.5223 98.0389 47.1184 97.5868 45.8088 96.9461C44.5099 96.2821 43.3112 95.4363 42.2524 94.4475Z"
        fill="#FAFFFF" />
    <defs>
        <linearGradient id="paint0_linear_1_4062" x1="37.8126" y1="41.9303" x2="67.8138"
            y2="96.6143" gradientUnits="userSpaceOnUse">
            <stop stop-color="#F40000" />
            <stop offset="1" stop-color="#D80000" />
        </linearGradient>
        <linearGradient id="paint1_linear_1_4062" x1="30.149" y1="17.9846" x2="78.0334" y2="102.014"
            gradientUnits="userSpaceOnUse">
            <stop stop-color="#ECEFF4" />
            <stop offset="1" stop-color="#D9DFE8" />
        </linearGradient>
    </defs>
</svg>