<svg width="105" height="105" viewBox="0 0 105 105" fill="none" xmlns="http://www.w3.org/2000/svg">
    <path
        d="M65.177 54.7361C61.8471 45.2997 52.5352 38.5029 41.5598 38.5029C27.6677 38.5029 16.318 49.421 16.6427 62.9426C7.63892 62.6442 0.476562 69.544 0.476562 77.8818C0.476562 86.1467 7.4717 92.8472 16.0992 92.8472H68.6196C79.6893 92.8472 88.662 84.2518 88.662 73.6478C88.662 61.7527 77.4795 52.6945 65.177 54.7361Z"
        fill="url(#paint0_linear_1_4149)" />
    <path
        d="M104.524 52.5078C100.572 57.4049 94.8271 60.795 88.286 61.6836C87.5607 60.5247 86.7129 59.4475 85.7582 58.4665C85.7533 58.4568 85.7426 58.4461 85.7378 58.4412C81.3715 53.6822 74.6116 51.0368 67.4522 52.1451C66.3235 49.1526 64.588 46.4314 62.3869 44.1282C62.4122 44.1642 62.4433 44.2001 62.4735 44.2351C62.3403 44.0874 62.2032 43.9493 62.07 43.8064C62.106 43.8424 62.1361 43.8783 62.1721 43.9085C62.1973 43.9337 62.2236 43.96 62.2489 43.9853C61.5955 43.2551 60.8907 42.561 60.1401 41.9174C59.7775 40.2218 59.5889 38.4601 59.5889 36.6576C59.5889 24.8364 67.7079 14.91 78.6765 12.1528C75.1785 16.4879 73.0853 21.9975 73.0853 28.0029C73.0853 41.9582 84.3961 53.269 98.3514 53.269C100.48 53.269 102.547 53.0036 104.524 52.5078Z"
        fill="#FEB81A" />
    <defs>
        <linearGradient id="paint0_linear_1_4149" x1="0.47664" y1="65.6747" x2="88.6624"
            y2="65.6747" gradientUnits="userSpaceOnUse">
            <stop stop-color="white" />
            <stop offset="0.0776" stop-color="#E4F5FD" />
            <stop offset="0.1791" stop-color="#C9EBFC" />
            <stop offset="0.2895" stop-color="#B4E3FB" />
            <stop offset="0.4114" stop-color="#A5DDFA" />
            <stop offset="0.554" stop-color="#9CDAF9" />
            <stop offset="0.767" stop-color="#99D9F9" />
        </linearGradient>
    </defs>
</svg>