<svg width="105" height="105" viewBox="0 0 105 105" fill="none" xmlns="http://www.w3.org/2000/svg">
    <path
        d="M93.3303 42.9392L89.3034 40.6136L92.4748 39.2924C93.3993 38.9074 93.8369 37.8457 93.4509 36.9211C93.0659 35.9965 92.0042 35.56 91.0796 35.945L85.3503 38.3328L77.4675 33.7818L85.3503 29.2308L91.0806 31.6186C92.0023 32.0036 93.0659 31.568 93.4518 30.6425C93.8368 29.7179 93.3993 28.6562 92.4748 28.2712L89.3024 26.949L93.3303 24.6235C94.1975 24.1228 94.495 23.0135 93.9943 22.1462C93.4927 21.279 92.3844 20.9815 91.5171 21.4822L87.4892 23.8078L87.9306 20.4001C88.0589 19.4075 87.358 18.4975 86.3653 18.3692C85.3698 18.2408 84.4627 18.9418 84.3343 19.9344L83.5371 26.0905L75.6553 30.6415V21.5396L80.5874 17.7712C81.3837 17.1636 81.5363 16.0251 80.9277 15.2289C80.3191 14.4326 79.1816 14.281 78.3863 14.8886L75.6553 16.975V12.3249C75.6553 11.3235 74.8435 10.5117 73.8421 10.5117C72.8407 10.5117 72.0289 11.3235 72.0289 12.3249V16.975L69.298 14.8886C68.5027 14.281 67.3642 14.4326 66.7556 15.2289C66.148 16.0251 66.2996 17.1626 67.0959 17.7712L72.028 21.5396V30.6415L64.1452 26.0905L63.348 19.9354C63.2196 18.9418 62.3125 18.2418 61.317 18.3701C60.3234 18.4985 59.6224 19.4085 59.7517 20.4011L60.1931 23.8087L56.1662 21.4832C55.2989 20.9825 54.1896 21.279 53.6889 22.1472C53.1882 23.0144 53.4857 24.1237 54.353 24.6244L58.3809 26.95L55.2085 28.2722C54.2839 28.6572 53.8464 29.7189 54.2324 30.6435C54.6184 31.571 55.683 32.0036 56.6037 31.6196L62.3339 29.2318L70.2167 33.7828L62.3339 38.3337L56.6046 35.946C55.6791 35.561 54.6184 35.9985 54.2334 36.9221C53.8484 37.8467 54.2849 38.9083 55.2095 39.2933L58.3818 40.6155L54.3549 42.9411C53.4877 43.4418 53.1902 44.5511 53.6909 45.4183C54.1925 46.2865 55.3009 46.5821 56.1681 46.0824L60.195 43.7568L59.7537 47.1644C59.6253 48.1571 60.3263 49.0671 61.3189 49.1954C62.3087 49.3237 63.2216 48.6257 63.3499 47.6301L64.1471 41.474L72.0299 36.923V46.025L67.0978 49.7933C66.3016 50.401 66.1489 51.5394 66.7575 52.3357C67.3662 53.1319 68.5037 53.2836 69.2999 52.676L72.0309 50.5896V55.2397C72.0309 56.2411 72.8427 57.0529 73.8441 57.0529C74.8455 57.0529 75.6573 56.2411 75.6573 55.2397V50.5896L78.3873 52.676C79.1835 53.2836 80.321 53.1319 80.9296 52.3357C81.5373 51.5404 81.3856 50.4019 80.5893 49.7933L75.6573 46.025V36.923L83.5391 41.474L84.3363 47.6301C84.4656 48.6257 85.3766 49.3237 86.3673 49.1954C87.3609 49.0671 88.0619 48.1571 87.9325 47.1644L87.4912 43.7558L91.5191 46.0814C92.3873 46.5821 93.4946 46.2855 93.9963 45.4174C94.4941 44.5492 94.1975 43.4399 93.3303 42.9392Z"
        fill="url(#paint0_linear_1_4051)" />
    <path
        d="M40.4105 12.7206V67.2224C40.4105 67.4965 40.5553 67.7474 40.7887 67.8922C45.854 71.0383 49.2285 76.6558 49.2285 83.0599C49.2285 93.2876 40.6127 101.503 30.2459 100.858C21.283 100.301 14.0234 92.9464 13.5742 83.9767C13.2349 77.1945 16.6853 71.1871 21.9917 67.8913C22.2241 67.7464 22.369 67.4965 22.369 67.2224V12.7196C22.369 7.73792 26.4076 3.69931 31.3892 3.69931C36.3719 3.70028 40.4105 7.73889 40.4105 12.7206Z"
        fill="url(#paint1_linear_1_4051)" />
    <path
        d="M31.8139 103.989C20.7296 103.989 11.7385 95.0279 11.2077 84.4307C10.8499 77.3014 14.1973 70.5172 19.9985 66.4611V13.4672C19.9985 7.1361 24.8178 1.84721 30.9701 1.42721C37.9934 0.937214 43.6002 6.54985 43.6002 13.196V66.4601C49.1428 70.3228 52.4182 76.5654 52.4182 83.3729C52.4182 94.5554 43.3727 103.989 31.8139 103.989ZM31.3492 6.97471C28.103 7.19638 25.5596 10.0489 25.5596 13.4672V67.5374C25.5596 68.7789 24.9267 69.9125 23.866 70.5697C19.2101 73.4621 16.4859 78.6674 16.761 84.1526C17.1382 91.6737 23.3177 97.931 30.8271 98.3976C39.5538 98.945 46.8571 92.0519 46.8571 83.3739C46.8571 78.1278 44.1932 73.3405 39.7298 70.5687C38.6701 69.9105 38.0391 68.7769 38.0391 67.5374V13.196C38.0391 9.63082 35.0437 6.72582 31.3492 6.97471Z"
        fill="#BCC4D1" />
    <path
        d="M31.4038 103.675C20.3195 103.675 11.3284 94.7139 10.7975 84.1167C10.4398 76.9874 13.7871 70.2032 19.5884 66.1471V13.1532C19.5884 6.82208 24.4077 1.53319 30.5599 1.11319C37.5832 0.623188 43.19 6.23583 43.19 12.8819V66.1461C48.7327 70.0087 52.0081 76.2514 52.0081 83.0599C52.0091 94.2414 42.9625 103.675 31.4038 103.675ZM30.9391 6.66069C27.6928 6.88235 25.1495 9.73388 25.1495 13.1532V67.2233C25.1495 68.4649 24.5166 69.5985 23.4559 70.2557C18.7999 73.1481 16.0757 78.3533 16.3509 83.8386C16.7281 91.3597 22.9075 97.6169 30.417 98.0836C39.1436 98.631 46.447 91.7379 46.447 83.0599C46.447 77.8137 43.7831 73.0265 39.3196 70.2547C38.2599 69.5965 37.6289 68.4629 37.6289 67.2233V12.8819C37.6299 9.3168 34.6335 6.4118 30.9391 6.66069Z"
        fill="url(#paint2_linear_1_4051)" />
    <path
        d="M10.7975 84.1167C10.5953 80.6419 11.2895 77.1128 12.8042 73.9628C14.3043 70.804 16.659 68.0633 19.5203 66.0489L19.4697 66.1461C19.4581 52.5564 19.3463 38.9657 19.4172 25.376L19.4435 15.1832C19.4474 13.4974 19.3949 11.7551 19.8518 10.0878C20.2767 8.42624 21.0408 6.84638 22.119 5.51055C24.2375 2.81652 27.5567 1.06166 30.9974 1.01694C34.4225 0.895411 37.8447 2.37222 40.0993 4.9243C37.8049 2.40624 34.3807 1.00041 31.0022 1.17152C27.615 1.28333 24.3697 2.99541 22.3047 5.65638C21.2538 6.9718 20.5139 8.52444 20.1065 10.1519C19.6681 11.7833 19.7283 13.4808 19.7332 15.1822L19.7595 25.375C19.8304 38.9647 19.7186 52.5554 19.707 66.1451V66.2074L19.6564 66.2424C16.8088 68.214 14.4949 70.9294 12.9451 74.0299C11.3954 77.1342 10.6468 80.6381 10.7975 84.1167Z"
        fill="#FAFFFF" />
    <path
        d="M39.3207 70.2537C38.3446 69.6762 37.6698 68.6058 37.5882 67.4567L37.5327 64.0588L37.4978 57.2687L37.4316 43.6887C37.5016 34.6354 37.4589 25.5831 37.63 16.5297C37.8011 25.5831 37.7583 34.6354 37.8283 43.6887L37.7622 57.2687L37.7272 64.0588L37.6864 67.4508C37.7321 68.5708 38.3611 69.6481 39.3207 70.2537Z"
        fill="#FAFFFF" />
    <path
        d="M21.3896 94.255C23.5869 96.1226 26.2809 97.3787 29.1072 97.8075C31.9383 98.1828 34.8753 97.8172 37.4605 96.6048C38.7584 96.0303 39.996 95.2904 41.0713 94.3522C42.1728 93.4461 43.1295 92.364 43.9063 91.1653C45.5008 88.7862 46.3301 85.9367 46.4477 83.0598C46.4885 85.9396 45.7419 88.8757 44.128 91.3091C43.356 92.541 42.3974 93.66 41.2872 94.604C40.2031 95.5801 38.948 96.3598 37.6228 96.9675C34.9492 98.1701 31.9422 98.4948 29.0673 98.068C27.6313 97.8318 26.2342 97.3807 24.9305 96.7429C23.6384 96.0808 22.4445 95.2389 21.3896 94.255Z"
        fill="#FAFFFF" />
    <defs>
        <linearGradient id="paint0_linear_1_4051" x1="53.4447" y1="33.7811" x2="94.237" y2="33.7811"
            gradientUnits="userSpaceOnUse">
            <stop stop-color="white" />
            <stop offset="0.0776" stop-color="#E4F5FD" />
            <stop offset="0.1791" stop-color="#C9EBFC" />
            <stop offset="0.2895" stop-color="#B4E3FB" />
            <stop offset="0.4114" stop-color="#A5DDFA" />
            <stop offset="0.554" stop-color="#9CDAF9" />
            <stop offset="0.767" stop-color="#99D9F9" />
        </linearGradient>
        <linearGradient id="paint1_linear_1_4051" x1="11.8391" y1="21.4014" x2="51.7777"
            y2="94.1987" gradientUnits="userSpaceOnUse">
            <stop stop-color="#00B9F7" />
            <stop offset="1" stop-color="#0099DB" />
        </linearGradient>
        <linearGradient id="paint2_linear_1_4051" x1="9.34275" y1="18.1434" x2="57.0069"
            y2="101.786" gradientUnits="userSpaceOnUse">
            <stop stop-color="#ECEFF4" />
            <stop offset="1" stop-color="#D9DFE8" />
        </linearGradient>
    </defs>
</svg>