<svg width="105" height="105" viewBox="0 0 105 105" fill="none" xmlns="http://www.w3.org/2000/svg">
    <path
        d="M68.4873 49.7398C67.2457 50.6382 66.1588 51.7446 65.3013 53.0026C64.5332 54.1537 63.9411 55.4118 63.5328 56.7262C63.1731 58.0202 63.0098 59.3561 63.0136 60.6948C61.041 60.654 59.0635 61.2947 57.5235 62.4993C56.0749 63.6348 55.0424 65.2458 54.6 66.9929C54.6156 66.9414 54.6311 66.8908 54.6477 66.8393C54.6146 66.9491 54.5825 67.06 54.5534 67.1737C54.5495 67.1864 54.5456 67.198 54.5407 67.2107C54.5368 67.2272 54.5329 67.2476 54.5281 67.2641C54.5242 67.2768 54.5203 67.2923 54.5203 67.305C54.4629 67.5743 54.4143 67.8397 54.3813 68.1178C54.0507 68.1382 53.7114 68.1508 53.3721 68.1508C44.8593 68.1508 37.9595 61.2539 37.9595 52.7479C37.9595 52.0294 38.0081 51.3187 38.1063 50.6246H39.8709C45.8918 50.6246 50.7734 45.8432 50.7734 39.9466C50.7734 39.1426 50.6839 38.358 50.5118 37.6114C51.4393 37.4354 52.395 37.3459 53.3711 37.3459C60.8524 37.3469 67.0863 42.6757 68.4873 49.7398Z"
        fill="#F5C606" />
    <path
        d="M53.8738 35.2265C54.3745 35.2217 54.7761 34.8124 54.7712 34.3117L54.6497 22.0237C54.6448 21.5231 54.2355 21.1215 53.7348 21.1264C53.2341 21.1312 52.8326 21.5406 52.8374 22.0412L52.959 34.3292C52.9638 34.8299 53.3731 35.2314 53.8738 35.2265Z"
        fill="#F5C606" />
    <path
        d="M53.7787 70.3014C53.278 70.3014 52.8726 70.7068 52.8726 71.2075V83.7326C52.8726 84.2333 53.278 84.6388 53.7787 84.6388C54.2794 84.6388 54.6848 84.2333 54.6848 83.7326V71.2075C54.6848 70.7068 54.2794 70.3014 53.7787 70.3014Z"
        fill="#F5C606" />
    <path
        d="M35.8275 52.7907C35.8227 52.291 35.4134 51.8895 34.9127 51.8943L22.9077 52.0129C22.4079 52.0178 22.0064 52.4271 22.0113 52.9278C22.0161 53.4275 22.4254 53.8291 22.9261 53.8242L34.9311 53.7056C35.4309 53.7007 35.8324 53.2914 35.8275 52.7907Z"
        fill="#F5C606" />
    <path
        d="M70.916 52.883C70.916 53.3828 71.3214 53.7882 71.8212 53.7882H84.6418C85.1416 53.7882 85.547 53.3828 85.547 52.883C85.547 52.3833 85.1416 51.9779 84.6418 51.9779H71.8212C71.3214 51.9769 70.916 52.3824 70.916 52.883Z"
        fill="#F5C606" />
    <path
        d="M41.3613 40.3307C41.7113 39.9739 41.7055 39.4003 41.3487 39.0493L32.5743 30.4471C32.2175 30.0971 31.6439 30.1029 31.293 30.4597C30.943 30.8165 30.9488 31.3901 31.3056 31.7411L40.0799 40.3433C40.4367 40.6943 41.0103 40.6885 41.3613 40.3307Z"
        fill="#F5C606" />
    <path
        d="M66.0955 65.1991C65.7416 65.553 65.7416 66.1266 66.0955 66.4805L74.9524 75.3375C75.3063 75.6914 75.8799 75.6914 76.2338 75.3375C76.5877 74.9836 76.5877 74.41 76.2338 74.0561L67.3769 65.1991C67.023 64.8452 66.4494 64.8452 66.0955 65.1991Z"
        fill="#F5C606" />
    <path
        d="M41.0202 65.5112C40.6634 65.1612 40.0898 65.1671 39.7398 65.5239L31.3349 74.0969C30.9849 74.4537 30.9908 75.0273 31.3476 75.3773C31.7044 75.7273 32.278 75.7215 32.628 75.3647L41.0329 66.7916C41.3829 66.4348 41.377 65.8612 41.0202 65.5112Z"
        fill="#F5C606" />
    <path
        d="M65.8963 40.7653C66.2502 41.1191 66.8228 41.1191 67.1767 40.7653L76.2417 31.7003C76.5956 31.3464 76.5956 30.7737 76.2417 30.4198C75.8878 30.0659 75.3152 30.0659 74.9613 30.4198L65.8963 39.4848C65.5424 39.8387 65.5424 40.4114 65.8963 40.7653Z"
        fill="#F5C606" />
    <path
        d="M36.5752 28.8371C34.8359 23.9099 29.9719 20.3613 24.2387 20.3613C16.982 20.3613 11.0544 26.0614 11.2235 33.1217C6.51992 32.9661 2.77979 36.5682 2.77979 40.9218C2.77979 45.2375 6.4334 48.7356 10.9396 48.7356H38.3738C44.1556 48.7356 48.8427 44.2478 48.8427 38.711C48.8427 32.5014 43.0016 27.7715 36.5752 28.8371Z"
        fill="url(#paint0_linear_1_4106)" />
    <path
        d="M89.9522 57.9202C88.2128 52.9929 83.3488 49.4443 77.6156 49.4443C70.359 49.4443 64.4313 55.1445 64.6005 62.2048C59.8969 62.0492 56.1567 65.6513 56.1567 70.0049C56.1567 74.3206 59.8103 77.8186 64.3166 77.8186H91.7498C97.5316 77.8186 102.219 73.3309 102.219 67.7941C102.22 61.5835 96.3785 56.8536 89.9522 57.9202Z"
        fill="url(#paint1_linear_1_4106)" />
    <defs>
        <linearGradient id="paint0_linear_1_4106" x1="2.78068" y1="34.5488" x2="48.8429"
            y2="34.5488" gradientUnits="userSpaceOnUse">
            <stop stop-color="white" />
            <stop offset="0.0776" stop-color="#E4F5FD" />
            <stop offset="0.1791" stop-color="#C9EBFC" />
            <stop offset="0.2895" stop-color="#B4E3FB" />
            <stop offset="0.4114" stop-color="#A5DDFA" />
            <stop offset="0.554" stop-color="#9CDAF9" />
            <stop offset="0.767" stop-color="#99D9F9" />
        </linearGradient>
        <linearGradient id="paint1_linear_1_4106" x1="56.1576" y1="63.6314" x2="102.22" y2="63.6314"
            gradientUnits="userSpaceOnUse">
            <stop stop-color="white" />
            <stop offset="0.0776" stop-color="#E4F5FD" />
            <stop offset="0.1791" stop-color="#C9EBFC" />
            <stop offset="0.2895" stop-color="#B4E3FB" />
            <stop offset="0.4114" stop-color="#A5DDFA" />
            <stop offset="0.554" stop-color="#9CDAF9" />
            <stop offset="0.767" stop-color="#99D9F9" />
        </linearGradient>
    </defs>
</svg>