<svg width="105" height="105" viewBox="0 0 105 105" fill="none" xmlns="http://www.w3.org/2000/svg">
    <path
        d="M75.1753 25.6171C71.511 15.2338 61.2648 7.75446 49.1878 7.75446C33.9016 7.75446 21.4134 19.7682 21.7712 34.6471C11.8633 34.3195 3.98242 41.9106 3.98242 51.0854C3.98242 60.1796 11.6785 67.552 21.1723 67.552H78.9641C91.1441 67.552 101.018 58.0932 101.018 46.4256C101.018 33.3385 88.7135 23.3713 75.1753 25.6171Z"
        fill="url(#paint0_linear_1_4157)" />
    <path
        d="M81.6075 80.9608L78.9776 79.4422L81.6075 77.9236C82.5962 77.352 82.9365 76.0871 82.3638 75.0974C81.7931 74.1086 80.5293 73.7693 79.5386 74.34L76.9087 75.8586V72.8224C76.9087 71.68 75.9832 70.7535 74.8398 70.7535C73.6975 70.7535 72.7709 71.68 72.7709 72.8224V75.8586L70.142 74.341C69.1523 73.7703 67.8884 74.1086 67.3168 75.0983C66.7451 76.0881 67.0844 77.3529 68.0741 77.9246L70.704 79.4432L68.0741 80.9618C67.0854 81.5335 66.7451 82.7983 67.3168 83.7881C67.8884 84.7778 69.1513 85.1161 70.142 84.5454L72.7709 83.0278V86.064C72.7709 87.2064 73.6965 88.1329 74.8398 88.1329C75.9822 88.1329 76.9087 87.2064 76.9087 86.064V83.0278L79.5386 84.5464C80.5283 85.1171 81.7922 84.7788 82.3638 83.789C82.9365 82.7974 82.5972 81.5325 81.6075 80.9608Z"
        fill="url(#paint1_linear_1_4157)" />
    <path
        d="M57.5616 91.0836L55.3021 89.7789L57.5616 88.4742C58.4113 87.9832 58.703 86.8963 58.212 86.0456C57.721 85.1959 56.636 84.9052 55.7843 85.3952L53.5249 86.6999V84.0905C53.5249 83.1085 52.7296 82.3132 51.7477 82.3132C50.7657 82.3132 49.9705 83.1095 49.9705 84.0905V86.6989L47.711 85.3942C46.8603 84.9042 45.7743 85.1949 45.2834 86.0446C44.7924 86.8943 45.0841 87.9823 45.9338 88.4732L48.1932 89.778L45.9338 91.0827C45.0841 91.5736 44.7924 92.6606 45.2834 93.5113C45.7743 94.362 46.8603 94.6527 47.711 94.1617L49.9705 92.857V95.4655C49.9705 96.4474 50.7657 97.2427 51.7477 97.2427C52.7296 97.2427 53.5249 96.4464 53.5249 95.4655V92.856L55.7843 94.1607C56.635 94.6507 57.721 94.361 58.212 93.5103C58.703 92.6625 58.4113 91.5746 57.5616 91.0836Z"
        fill="url(#paint2_linear_1_4157)" />
    <path
        d="M36.2563 79.3392L34.5374 78.3465L36.2563 77.3539C36.9028 76.9806 37.1254 76.1532 36.7511 75.5057C36.3778 74.8592 35.5514 74.6375 34.9039 75.0108L33.184 76.0035V74.0182C33.184 73.2715 32.5783 72.6658 31.8317 72.6658C31.084 72.6658 30.4793 73.2715 30.4793 74.0182V76.0035L28.7604 75.0108C28.1129 74.6375 27.2865 74.8592 26.9132 75.5057C26.5389 76.1522 26.7615 76.9796 27.4081 77.3539L29.127 78.3465L27.4081 79.3392C26.7615 79.7125 26.5389 80.5399 26.9132 81.1874C27.2865 81.8339 28.1129 82.0556 28.7604 81.6822L30.4793 80.6896V82.6749C30.4793 83.4215 31.085 84.0272 31.8317 84.0272C32.5793 84.0272 33.184 83.4215 33.184 82.6749V80.6896L34.9029 81.6822C35.5504 82.0556 36.3768 81.8349 36.7501 81.1874C37.1245 80.5399 36.9028 79.7125 36.2563 79.3392Z"
        fill="url(#paint3_linear_1_4157)" />
    <defs>
        <linearGradient id="paint0_linear_1_4157" x1="3.98267" y1="37.6537" x2="101.018"
            y2="37.6537" gradientUnits="userSpaceOnUse">
            <stop stop-color="white" />
            <stop offset="0.0776" stop-color="#E4F5FD" />
            <stop offset="0.1791" stop-color="#C9EBFC" />
            <stop offset="0.2895" stop-color="#B4E3FB" />
            <stop offset="0.4114" stop-color="#A5DDFA" />
            <stop offset="0.554" stop-color="#9CDAF9" />
            <stop offset="0.767" stop-color="#99D9F9" />
        </linearGradient>
        <linearGradient id="paint1_linear_1_4157" x1="67.0398" y1="79.4426" x2="82.6423"
            y2="79.4426" gradientUnits="userSpaceOnUse">
            <stop stop-color="white" />
            <stop offset="0.0776" stop-color="#E4F5FD" />
            <stop offset="0.1791" stop-color="#C9EBFC" />
            <stop offset="0.2895" stop-color="#B4E3FB" />
            <stop offset="0.4114" stop-color="#A5DDFA" />
            <stop offset="0.554" stop-color="#9CDAF9" />
            <stop offset="0.767" stop-color="#99D9F9" />
        </linearGradient>
        <linearGradient id="paint2_linear_1_4157" x1="45.0426" y1="89.7794" x2="58.4503"
            y2="89.7794" gradientUnits="userSpaceOnUse">
            <stop stop-color="white" />
            <stop offset="0.0776" stop-color="#E4F5FD" />
            <stop offset="0.1791" stop-color="#C9EBFC" />
            <stop offset="0.2895" stop-color="#B4E3FB" />
            <stop offset="0.4114" stop-color="#A5DDFA" />
            <stop offset="0.554" stop-color="#9CDAF9" />
            <stop offset="0.767" stop-color="#99D9F9" />
        </linearGradient>
        <linearGradient id="paint3_linear_1_4157" x1="26.7302" y1="78.3464" x2="36.9323"
            y2="78.3464" gradientUnits="userSpaceOnUse">
            <stop stop-color="white" />
            <stop offset="0.0776" stop-color="#E4F5FD" />
            <stop offset="0.1791" stop-color="#C9EBFC" />
            <stop offset="0.2895" stop-color="#B4E3FB" />
            <stop offset="0.4114" stop-color="#A5DDFA" />
            <stop offset="0.554" stop-color="#9CDAF9" />
            <stop offset="0.767" stop-color="#99D9F9" />
        </linearGradient>
    </defs>
</svg>