<svg width="105" height="105" viewBox="0 0 105 105" fill="none" xmlns="http://www.w3.org/2000/svg">
    <path
        d="M63.7815 38.3299C60.8182 29.9318 52.531 23.8836 42.764 23.8836C30.4012 23.8836 20.2999 33.6 20.5896 45.6342C12.5765 45.3687 6.20264 51.5083 6.20264 58.9293C6.20264 66.2851 12.4278 72.2478 20.1054 72.2478H66.845C76.6956 72.2478 84.6814 64.5983 84.6814 55.161C84.6824 44.5744 74.7307 36.5128 63.7815 38.3299Z"
        fill="url(#paint0_linear_1_4208)" />
    <path
        d="M98.798 36.3475C95.2805 40.705 90.1686 43.7228 84.3469 44.5132C83.7014 43.4817 82.9469 42.523 82.0972 41.65C82.0923 41.6412 82.0836 41.6315 82.0787 41.6276C78.1937 37.3926 72.1766 35.0389 65.8057 36.0247C64.8014 33.3618 63.2565 30.94 61.2975 28.8905C61.3198 28.9226 61.3471 28.9537 61.3743 28.9858C61.2557 28.8536 61.1332 28.7311 61.0155 28.6037C61.0476 28.6358 61.0748 28.6669 61.1059 28.6942C61.1283 28.7165 61.1516 28.7398 61.174 28.7622C60.5926 28.1128 59.9655 27.4944 59.2976 26.9218C58.9748 25.4129 58.8066 23.8457 58.8066 22.2415C58.8066 11.7211 66.0322 2.88748 75.7933 0.433594C72.6803 4.29137 70.8175 9.19526 70.8175 14.5386C70.8175 26.9578 80.8829 37.0232 93.303 37.0232C95.1989 37.0242 97.0393 36.7879 98.798 36.3475Z"
        fill="#FEB81A" />
    <path
        d="M18.5656 89.0041C17.8929 88.6161 17.6624 87.7557 18.0513 87.0839L24.0062 76.7696C24.3941 76.0968 25.2545 75.8664 25.9263 76.2553C26.5991 76.6432 26.8295 77.5037 26.4406 78.1755L20.4858 88.4898C20.0979 89.1616 19.2384 89.392 18.5656 89.0041Z"
        fill="#78D7FF" />
    <path
        d="M26.009 99.5828C25.3362 99.1949 25.1058 98.3345 25.4947 97.6627L31.4496 87.3484C31.8375 86.6756 32.6979 86.4452 33.3697 86.8341C34.0425 87.222 34.2729 88.0824 33.884 88.7542L27.9291 99.0685C27.5412 99.7403 26.6818 99.9707 26.009 99.5828Z"
        fill="#78D7FF" />
    <path
        d="M50.1047 102.217C49.4319 101.829 49.2015 100.968 49.5904 100.295L55.5453 89.9812C55.9332 89.3084 56.7936 89.078 57.4654 89.4669C58.1382 89.8548 58.3686 90.7152 57.9797 91.387L52.0248 101.701C51.6369 102.374 50.7765 102.605 50.1047 102.217Z"
        fill="#78D7FF" />
    <path
        d="M66.0935 92.2571C65.4207 91.8692 65.1903 91.0088 65.5792 90.337L71.534 80.0227C71.9219 79.3499 72.7824 79.1195 73.4542 79.5084C74.1269 79.8963 74.3574 80.7567 73.9685 81.4285L68.0136 91.7428C67.6257 92.4146 66.7663 92.645 66.0935 92.2571Z"
        fill="#78D7FF" />
    <path d="M44.7969 90.2115H38.2363L42.0824 75.9305H48.643L44.7969 90.2115Z" fill="#F5C606" />
    <path d="M39.5869 104.566L45.7265 85.7976H53.8621L39.5869 104.566Z" fill="#F5C606" />
    <defs>
        <linearGradient id="paint0_linear_1_4208" x1="6.20205" y1="48.0649" x2="84.682" y2="48.0649"
            gradientUnits="userSpaceOnUse">
            <stop stop-color="white" />
            <stop offset="0.0776" stop-color="#E4F5FD" />
            <stop offset="0.1791" stop-color="#C9EBFC" />
            <stop offset="0.2895" stop-color="#B4E3FB" />
            <stop offset="0.4114" stop-color="#A5DDFA" />
            <stop offset="0.554" stop-color="#9CDAF9" />
            <stop offset="0.767" stop-color="#99D9F9" />
        </linearGradient>
    </defs>
</svg>