<svg width="105" height="105" viewBox="0 0 105 105" fill="none" xmlns="http://www.w3.org/2000/svg">
    <path
        d="M74.558 21.0923C70.8917 10.7032 60.6396 3.21997 48.5549 3.21997C33.2599 3.21997 20.763 15.2405 21.1207 30.1291C11.207 29.8005 3.32129 37.3965 3.32129 46.5772C3.32129 55.6772 11.0223 63.0544 20.5218 63.0544H78.3477C90.5355 63.0544 100.415 53.5898 100.415 41.9154C100.416 28.8186 88.1039 18.8455 74.558 21.0923Z"
        fill="url(#paint0_linear_1_4166)" />
    <path
        d="M9.49018 83.6004C8.56852 83.0686 8.25352 81.8903 8.78532 80.9696L16.9423 66.8412C17.4741 65.9205 18.6524 65.6046 19.5731 66.1364C20.4948 66.6682 20.8098 67.8465 20.278 68.7672L12.121 82.8955C11.5892 83.8162 10.4119 84.1322 9.49018 83.6004Z"
        fill="#78D7FF" />
    <path
        d="M19.687 98.3286C18.7653 97.7968 18.4503 96.6185 18.9821 95.6978L27.139 81.5694C27.6709 80.6487 28.8492 80.3328 29.7699 80.8646C30.6915 81.3964 31.0065 82.5747 30.4747 83.4954L22.3178 97.6237C21.786 98.5444 20.6077 98.8604 19.687 98.3286Z"
        fill="#78D7FF" />
    <path
        d="M52.6928 101.699C51.7712 101.167 51.4562 99.9891 51.988 99.0684L60.1449 84.9401C60.6767 84.0194 61.855 83.7034 62.7757 84.2352C63.6964 84.767 64.0124 85.9454 63.4806 86.8661L55.3237 100.994C54.7918 101.915 53.6135 102.231 52.6928 101.699Z"
        fill="#78D7FF" />
    <path
        d="M74.5961 88.0561C73.6745 87.5243 73.3595 86.3459 73.8913 85.4252L82.0482 71.2969C82.58 70.3762 83.7584 70.0603 84.6791 70.5921C85.5997 71.1239 85.9157 72.3022 85.3839 73.2229L77.227 87.3512C76.6952 88.2729 75.5168 88.5879 74.5961 88.0561Z"
        fill="#78D7FF" />
    <path d="M46.4463 82.8994H38.1416L43.0095 64.8248H51.3142L46.4463 82.8994Z" fill="#F5C606" />
    <path d="M39.8516 101.068L47.6225 77.313H57.9193L39.8516 101.068Z" fill="#F5C606" />
    <defs>
        <linearGradient id="paint0_linear_1_4166" x1="3.32217" y1="33.1366" x2="100.416"
            y2="33.1366" gradientUnits="userSpaceOnUse">
            <stop stop-color="white" />
            <stop offset="0.0776" stop-color="#E4F5FD" />
            <stop offset="0.1791" stop-color="#C9EBFC" />
            <stop offset="0.2895" stop-color="#B4E3FB" />
            <stop offset="0.4114" stop-color="#A5DDFA" />
            <stop offset="0.554" stop-color="#9CDAF9" />
            <stop offset="0.767" stop-color="#99D9F9" />
        </linearGradient>
    </defs>
</svg>