<svg width="105" height="105" viewBox="0 0 105 105" fill="none" xmlns="http://www.w3.org/2000/svg">
    <path
        d="M96.214 84.6543C86.5899 96.5806 71.852 104.211 55.3291 104.211C26.3345 104.211 2.83008 80.7061 2.83008 51.7115C2.83105 27.1425 19.7049 6.51389 42.4929 0.789444C35.2274 9.79514 30.8777 21.2518 30.8777 33.7283C30.8777 62.7268 54.3822 86.2313 83.3806 86.2313C87.8081 86.2322 92.1083 85.6858 96.214 84.6543Z"
        fill="#FEB81A" />
    <path
        d="M99.2778 17.3444C90.9157 17.3444 89.4457 15.8744 89.4457 7.51236C89.4457 5.915 88.1507 4.62 86.5543 4.62C84.9579 4.62 83.6619 5.915 83.6619 7.51236C83.6619 15.8744 82.1919 17.3444 73.8289 17.3444C72.2325 17.3444 70.9375 18.6394 70.9375 20.2358C70.9375 21.8332 72.2325 23.1282 73.8289 23.1282C82.1919 23.1282 83.6619 24.5982 83.6619 32.9603C83.6619 34.5576 84.9569 35.8517 86.5543 35.8517C88.1507 35.8517 89.4457 34.5567 89.4457 32.9603C89.4457 24.5982 90.9157 23.1282 99.2778 23.1282C100.874 23.1282 102.169 21.8332 102.169 20.2358C102.169 18.6385 100.874 17.3444 99.2778 17.3444Z"
        fill="#FEB81A" />
    <path
        d="M68.1101 4.15042C65.9012 4.15042 65.5133 3.7625 65.5133 1.55361C65.5133 1.13167 65.1711 0.789444 64.7492 0.789444C64.3272 0.789444 63.985 1.13167 63.985 1.55361C63.985 3.7625 63.5971 4.15042 61.3872 4.15042C60.9653 4.15042 60.623 4.49264 60.623 4.91458C60.623 5.33653 60.9653 5.67875 61.3872 5.67875C63.5961 5.67875 63.985 6.06667 63.985 8.27555C63.985 8.6975 64.3272 9.03972 64.7492 9.03972C65.1711 9.03972 65.5133 8.6975 65.5133 8.27555C65.5133 6.06667 65.9012 5.67875 68.1101 5.67875C68.5321 5.67875 68.8743 5.33653 68.8743 4.91458C68.8743 4.49264 68.5321 4.15042 68.1101 4.15042Z"
        fill="#FEB81A" />
</svg>