<svg width="105" height="77" viewBox="0 0 105 77" fill="none" xmlns="http://www.w3.org/2000/svg">
    <g clip-path="url(#clip0_1_3992)">
        <path
            d="M54.3126 28.5104L28.6051 54.2169C23.429 50.9104 20 45.115 20 38.5224C20 28.2392 28.3349 19.9053 38.6171 19.9053C45.2107 19.9043 51.0061 23.3343 54.3126 28.5104Z"
            fill="#F5C606" />
        <path
            d="M39.224 17.3444C39.8287 17.3386 40.3138 16.8437 40.307 16.239L40.1602 1.38833C40.1544 0.78361 39.6595 0.298471 39.0548 0.305277C38.4501 0.31111 37.9649 0.805971 37.9718 1.41069L38.1186 16.2614C38.1254 16.8661 38.6193 17.3512 39.224 17.3444Z"
            fill="#F5C606" />
        <path
            d="M17.4236 38.571C17.4178 37.9663 16.9229 37.4811 16.3182 37.4879L1.81652 37.6318C1.2118 37.6376 0.726664 38.1325 0.733469 38.7372C0.739303 39.342 1.23416 39.8271 1.83889 39.8203L16.3406 39.6764C16.9443 39.6706 17.4294 39.1757 17.4236 38.571Z"
            fill="#F5C606" />
        <path
            d="M23.9486 23.3615C24.3715 22.9299 24.3647 22.2367 23.933 21.8137L13.4826 11.5694C13.0509 11.1465 12.3577 11.1533 11.9348 11.585C11.5119 12.0167 11.5187 12.7099 11.9504 13.1328L22.4008 23.3771C22.8325 23.8 23.5247 23.7932 23.9486 23.3615Z"
            fill="#F5C606" />
        <path
            d="M23.8652 53.7649C23.4336 53.3419 22.7404 53.3488 22.3174 53.7804L11.9954 64.3086C11.5724 64.7403 11.5793 65.4335 12.0109 65.8564C12.4426 66.2793 13.1358 66.2725 13.5587 65.8408L23.8808 55.3126C24.3037 54.881 24.2969 54.1888 23.8652 53.7649Z"
            fill="#F5C606" />
        <path
            d="M53.9226 23.8681C54.3504 24.2958 55.0426 24.2958 55.4704 23.8681L66.2456 13.0929C66.6733 12.6651 66.6733 11.9729 66.2456 11.5451C65.8178 11.1174 65.1256 11.1174 64.6978 11.5451L53.9226 22.3212C53.4958 22.7481 53.4958 23.4412 53.9226 23.8681Z"
            fill="#F5C606" />
        <path
            d="M57.3754 39.9574H54.0718C53.5352 39.9574 53.0996 39.5218 53.0996 38.9851V35.6815C53.0996 35.1449 53.5352 34.7093 54.0718 34.7093H57.3754C57.9121 34.7093 58.3477 35.1449 58.3477 35.6815V38.9851C58.3477 39.5228 57.9121 39.9574 57.3754 39.9574Z"
            fill="#A0A0A0" />
        <path
            d="M66.1225 46.5179H62.8189C62.2822 46.5179 61.8467 46.0824 61.8467 45.5457V42.2421C61.8467 41.7054 62.2822 41.2699 62.8189 41.2699H66.1225C66.6592 41.2699 67.0947 41.7054 67.0947 42.2421V45.5457C67.0947 46.0824 66.6592 46.5179 66.1225 46.5179Z"
            fill="#A0A0A0" />
        <path
            d="M57.9213 51.4383H54.6177C54.0811 51.4383 53.6455 51.0028 53.6455 50.4661V47.1625C53.6455 46.6258 54.0811 46.1903 54.6177 46.1903H57.9213C58.458 46.1903 58.8936 46.6258 58.8936 47.1625V50.4661C58.8936 51.0028 58.459 51.4383 57.9213 51.4383Z"
            fill="#A0A0A0" />
        <path
            d="M70.1674 55.3739H66.8638C66.3272 55.3739 65.8916 54.9383 65.8916 54.4017V51.098C65.8916 50.5614 66.3272 50.1258 66.8638 50.1258H70.1674C70.7041 50.1258 71.1397 50.5614 71.1397 51.098V54.4017C71.1397 54.9383 70.7041 55.3739 70.1674 55.3739Z"
            fill="#A0A0A0" />
        <path
            d="M56.0639 63.3549H52.7603C52.2236 63.3549 51.7881 62.9193 51.7881 62.3826V59.079C51.7881 58.5424 52.2236 58.1068 52.7603 58.1068H56.0639C56.6006 58.1068 57.0361 58.5424 57.0361 59.079V62.3826C57.0361 62.9203 56.6006 63.3549 56.0639 63.3549Z"
            fill="#A0A0A0" />
        <path
            d="M47.0981 68.6029H43.7945C43.2578 68.6029 42.8223 68.1674 42.8223 67.6307V64.3271C42.8223 63.7904 43.2578 63.3549 43.7945 63.3549H47.0981C47.6348 63.3549 48.0703 63.7904 48.0703 64.3271V67.6307C48.0703 68.1683 47.6348 68.6029 47.0981 68.6029Z"
            fill="#A0A0A0" />
        <path
            d="M58.2504 74.1796H54.9468C54.4102 74.1796 53.9746 73.744 53.9746 73.2074V69.9037C53.9746 69.3671 54.4102 68.9315 54.9468 68.9315H58.2504C58.7871 68.9315 59.2227 69.3671 59.2227 69.9037V73.2074C59.2227 73.744 58.7871 74.1796 58.2504 74.1796Z"
            fill="#A0A0A0" />
        <path
            d="M63.936 65.9789H60.6324C60.0957 65.9789 59.6602 65.5433 59.6602 65.0067V61.7031C59.6602 61.1664 60.0957 60.7308 60.6324 60.7308H63.936C64.4727 60.7308 64.9082 61.1664 64.9082 61.7031V65.0067C64.9082 65.5443 64.4727 65.9789 63.936 65.9789Z"
            fill="#A0A0A0" />
        <path
            d="M73.1196 65.4325H69.816C69.2793 65.4325 68.8438 64.997 68.8438 64.4603V61.1567C68.8438 60.62 69.2793 60.1844 69.816 60.1844H73.1196C73.6563 60.1844 74.0918 60.62 74.0918 61.1567V64.4603C74.0918 64.997 73.6563 65.4325 73.1196 65.4325Z"
            fill="#A0A0A0" />
        <path
            d="M81.1001 49.6883H77.7974C77.2608 49.6883 76.8252 49.2528 76.8252 48.7161V45.4125C76.8252 44.8758 77.2608 44.4403 77.7974 44.4403H81.101C81.6377 44.4403 82.0732 44.8758 82.0732 45.4125V48.7161C82.0723 49.2528 81.6377 49.6883 81.1001 49.6883Z"
            fill="#A0A0A0" />
        <path
            d="M83.7241 69.369H80.4205C79.8838 69.369 79.4482 68.9335 79.4482 68.3968V65.0932C79.4482 64.5565 79.8838 64.121 80.4205 64.121H83.7241C84.2607 64.121 84.6963 64.5565 84.6963 65.0932V68.3968C84.6963 68.9335 84.2617 69.369 83.7241 69.369Z"
            fill="#A0A0A0" />
        <path
            d="M93.1274 65.4325H89.8238C89.2871 65.4325 88.8516 64.997 88.8516 64.4603V61.1567C88.8516 60.62 89.2871 60.1844 89.8238 60.1844H93.1274C93.6641 60.1844 94.0996 60.62 94.0996 61.1567V64.4603C94.0996 64.997 93.6641 65.4325 93.1274 65.4325Z"
            fill="#A0A0A0" />
        <path
            d="M103.295 74.6171H99.9918C99.4551 74.6171 99.0195 74.1815 99.0195 73.6449V70.3412C99.0195 69.8046 99.4551 69.369 99.9918 69.369H103.295C103.832 69.369 104.268 69.8046 104.268 70.3412V73.6449C104.268 74.1815 103.833 74.6171 103.295 74.6171Z"
            fill="#A0A0A0" />
        <path
            d="M88.4262 38.6458H85.1226C84.5859 38.6458 84.1504 38.2103 84.1504 37.6736V34.37C84.1504 33.8333 84.5859 33.3978 85.1226 33.3978H88.4262C88.9629 33.3978 89.3985 33.8333 89.3985 34.37V37.6736C89.3985 38.2103 88.9629 38.6458 88.4262 38.6458Z"
            fill="#A0A0A0" />
        <path
            d="M77.4926 76.6937H74.189C73.6524 76.6937 73.2168 76.2582 73.2168 75.7215V72.4179C73.2168 71.8812 73.6524 71.4457 74.189 71.4457H77.4926C78.0293 71.4457 78.4649 71.8812 78.4649 72.4179V75.7215C78.4649 76.2592 78.0303 76.6937 77.4926 76.6937Z"
            fill="#A0A0A0" />
        <path
            d="M89.6284 57.014H86.3248C85.7881 57.014 85.3525 56.5785 85.3525 56.0418V52.7382C85.3525 52.2015 85.7881 51.766 86.3248 51.766H89.6284C90.165 51.766 90.6006 52.2015 90.6006 52.7382V56.0418C90.6006 56.5785 90.166 57.014 89.6284 57.014Z"
            fill="#A0A0A0" />
        <path
            d="M99.2504 55.1551H95.9468C95.4102 55.1551 94.9746 54.7196 94.9746 54.1829V50.8793C94.9746 50.3426 95.4102 49.9071 95.9468 49.9071H99.2504C99.7871 49.9071 100.223 50.3426 100.223 50.8793V54.1829C100.223 54.7196 99.7871 55.1551 99.2504 55.1551Z"
            fill="#A0A0A0" />
        <path
            d="M93.2368 47.7206H89.9332C89.3965 47.7206 88.9609 47.285 88.9609 46.7483V43.4447C88.9609 42.9081 89.3965 42.4725 89.9332 42.4725H93.2368C93.7734 42.4725 94.209 42.9081 94.209 43.4447V46.7483C94.209 47.285 93.7744 47.7206 93.2368 47.7206Z"
            fill="#A0A0A0" />
        <path
            d="M75.4155 41.4886H72.1119C71.5752 41.4886 71.1396 41.0531 71.1396 40.5164V37.2128C71.1396 36.6761 71.5752 36.2406 72.1119 36.2406H75.4155C75.9522 36.2406 76.3877 36.6761 76.3877 37.2128V40.5164C76.3877 41.0531 75.9522 41.4886 75.4155 41.4886Z"
            fill="#A0A0A0" />
        <path
            d="M47.0981 53.2962H43.7945C43.2578 53.2962 42.8223 52.8607 42.8223 52.324V49.0204C42.8223 48.4837 43.2578 48.0482 43.7945 48.0482H47.0981C47.6348 48.0482 48.0703 48.4837 48.0703 49.0204V52.324C48.0703 52.8617 47.6348 53.2962 47.0981 53.2962Z"
            fill="#A0A0A0" />
        <path
            d="M34.7426 73.9608H31.439C30.9024 73.9608 30.4668 73.5253 30.4668 72.9886V69.685C30.4668 69.1483 30.9024 68.7128 31.439 68.7128H34.7426C35.2793 68.7128 35.7149 69.1483 35.7149 69.685V72.9886C35.7149 73.5253 35.2803 73.9608 34.7426 73.9608Z"
            fill="#A0A0A0" />
    </g>
    <defs>
        <clipPath id="clip0_1_3992">
            <rect width="105" height="77" fill="white" />
        </clipPath>
    </defs>
</svg>