<svg width="105" height="105" viewBox="0 0 105 105" fill="none" xmlns="http://www.w3.org/2000/svg">
    <g clip-path="url(#clip0_1_4022)">
        <path
            d="M51.8372 77.3636C65.6893 77.3636 76.9186 66.1343 76.9186 52.2822C76.9186 38.4302 65.6893 27.2008 51.8372 27.2008C37.9852 27.2008 26.7559 38.4302 26.7559 52.2822C26.7559 66.1343 37.9852 77.3636 51.8372 77.3636Z"
            fill="#F5C606" />
        <path
            d="M52.6546 23.7494C53.4694 23.7417 54.1227 23.0747 54.1149 22.26L53.9166 2.25069C53.9088 1.43597 53.2419 0.782635 52.4271 0.790413C51.6124 0.798191 50.9591 1.46514 50.9669 2.27986L51.1652 22.2892C51.174 23.1039 51.8399 23.7582 52.6546 23.7494Z"
            fill="#F5C606" />
        <path
            d="M52.5003 80.8636C51.6855 80.8636 51.0254 81.5238 51.0254 82.3385V102.736C51.0254 103.55 51.6855 104.211 52.5003 104.211C53.315 104.211 53.9751 103.55 53.9751 102.736V82.3385C53.9751 81.5238 53.315 80.8636 52.5003 80.8636Z"
            fill="#F5C606" />
        <path
            d="M23.28 52.3503C23.2723 51.5355 22.6053 50.8822 21.7906 50.89L2.25087 51.0835C1.43615 51.0912 0.782818 51.7582 0.790596 52.5729C0.798374 53.3876 1.46532 54.041 2.28004 54.0332L21.8198 53.8397C22.6345 53.831 23.2888 53.165 23.28 52.3503Z"
            fill="#F5C606" />
        <path
            d="M80.3931 52.5C80.3931 53.3147 81.0532 53.9749 81.8679 53.9749H102.735C103.549 53.9749 104.21 53.3147 104.21 52.5C104.21 51.6853 103.549 51.0251 102.735 51.0251H81.8679C81.0532 51.0251 80.3931 51.6853 80.3931 52.5Z"
            fill="#F5C606" />
        <path
            d="M32.0719 31.8568C32.6416 31.2754 32.6329 30.3421 32.0515 29.7714L17.9698 15.9668C17.3884 15.3971 16.4551 15.4058 15.8844 15.9872C15.3147 16.5686 15.3234 17.5019 15.9048 18.0726L29.9855 31.8772C30.5679 32.4479 31.5012 32.4382 32.0719 31.8568Z"
            fill="#F5C606" />
        <path
            d="M72.2217 72.1564C71.6462 72.7319 71.6462 73.6662 72.2217 74.2418L86.9791 88.9992C87.5546 89.5747 88.4889 89.5747 89.0645 88.9992C89.64 88.4236 89.64 87.4893 89.0645 86.9137L74.3071 72.1564C73.7316 71.5808 72.7973 71.5808 72.2217 72.1564Z"
            fill="#F5C606" />
        <path
            d="M31.961 72.8233C31.3796 72.2536 30.4462 72.2624 29.8755 72.8437L15.9669 87.0304C15.3972 87.6118 15.406 88.5451 15.9874 89.1158C16.5687 89.6855 17.5021 89.6768 18.0728 89.0954L31.9804 74.9097C32.5511 74.3274 32.5424 73.393 31.961 72.8233Z"
            fill="#F5C606" />
        <path
            d="M72.4607 32.5393C73.0363 33.1149 73.9706 33.1149 74.5461 32.5393L89.0643 18.0211C89.6399 17.4456 89.6399 16.5113 89.0643 15.9357C88.4888 15.3601 87.5545 15.3601 86.9789 15.9357L72.4607 30.4539C71.8842 31.0304 71.8842 31.9638 72.4607 32.5393Z"
            fill="#F5C606" />
    </g>
    <defs>
        <clipPath id="clip0_1_4022">
            <rect width="105" height="105" fill="white" />
        </clipPath>
    </defs>
</svg>