<svg width="105" height="105" viewBox="0 0 105 105" fill="none" xmlns="http://www.w3.org/2000/svg">
    <path
        d="M38.6216 45.5778C38.6216 45.5778 38.6255 45.5778 38.6303 45.5778L38.6216 45.5865C38.6216 45.5817 38.6216 45.5816 38.6216 45.5778Z"
        fill="#F5C606" />
    <path
        d="M49.0993 26.913C46.3907 28.491 44.0389 30.658 42.2801 33.2121C41.0551 35.0437 40.1043 37.0387 39.4549 39.1242C38.8783 41.1794 38.6168 43.295 38.6207 45.4183C35.4688 45.358 32.3042 46.3818 29.8454 48.2903C28.9121 49.0165 28.0828 49.8643 27.3769 50.8015C23.2061 47.8567 20.4849 42.9975 20.4849 37.5025C20.4849 28.5201 27.7688 21.2372 36.7501 21.2372C41.691 21.2372 46.1156 23.4393 49.0993 26.913Z"
        fill="#F5C606" />
    <path
        d="M37.2818 19.0001C37.8097 18.9953 38.2336 18.5626 38.2287 18.0347L38.1004 5.05651C38.0955 4.5286 37.6629 4.10471 37.135 4.10957C36.6071 4.11443 36.1832 4.54707 36.188 5.07499L36.3164 18.0532C36.3212 18.5811 36.7539 19.005 37.2818 19.0001Z"
        fill="#F5C606" />
    <path
        d="M37.1827 56.0418C36.6548 56.0418 36.2261 56.4696 36.2261 56.9984V70.2275C36.2261 70.7554 36.6539 71.1841 37.1827 71.1841C37.7107 71.1841 38.1394 70.7564 38.1394 70.2275V56.9984C38.1384 56.4705 37.7107 56.0418 37.1827 56.0418Z"
        fill="#F5C606" />
    <path
        d="M18.2313 37.5492C18.2265 37.0212 17.7938 36.5974 17.2659 36.6022L4.59298 36.7276C4.06507 36.7325 3.64118 37.1651 3.64604 37.693C3.6509 38.221 4.08354 38.6449 4.61145 38.64L17.2844 38.5146C17.8123 38.5097 18.2362 38.0771 18.2313 37.5492Z"
        fill="#F5C606" />
    <path
        d="M55.2729 37.6464C55.2729 38.1743 55.7007 38.603 56.2296 38.603H69.7629C70.2909 38.603 70.7196 38.1753 70.7196 37.6464C70.7196 37.1184 70.2918 36.6897 69.7629 36.6897H56.2296C55.7017 36.6897 55.2729 37.1184 55.2729 37.6464Z"
        fill="#F5C606" />
    <path
        d="M23.9324 24.2579C24.3019 23.8807 24.296 23.275 23.9188 22.9055L14.7867 13.9523C14.4095 13.5829 13.8038 13.5887 13.4344 13.966C13.0649 14.3432 13.0708 14.9489 13.448 15.3183L22.5801 24.2715C22.9573 24.641 23.563 24.6351 23.9324 24.2579Z"
        fill="#F5C606" />
    <path
        d="M49.9734 50.4369C49.6 50.8103 49.6 51.4159 49.9734 51.7893L59.5439 61.3598C59.9172 61.7332 60.5229 61.7332 60.8963 61.3598C61.2696 60.9865 61.2696 60.3808 60.8963 60.0075L51.3257 50.4369C50.9524 50.0636 50.3467 50.0636 49.9734 50.4369Z"
        fill="#F5C606" />
    <path
        d="M23.8607 50.8278C23.4835 50.4583 22.8778 50.4642 22.5084 50.8414L13.4881 60.0425C13.1186 60.4197 13.1245 61.0254 13.5017 61.3949C13.8789 61.7643 14.4846 61.7585 14.8541 61.3812L23.8743 52.1801C24.2448 51.8029 24.2379 51.1972 23.8607 50.8278Z"
        fill="#F5C606" />
    <path
        d="M50.1281 24.7002C50.5015 25.0736 51.1072 25.0736 51.4805 24.7002L60.8965 15.2843C61.2698 14.9109 61.2698 14.3052 60.8965 13.9319C60.5231 13.5586 59.9175 13.5586 59.5441 13.9319L50.1281 23.3479C49.7548 23.7212 49.7548 24.3269 50.1281 24.7002Z"
        fill="#F5C606" />
    <path
        d="M81.4619 40.1158C78.6415 32.1222 70.7538 26.3657 61.4565 26.3657C49.6887 26.3657 40.0753 35.6135 40.3505 47.0682C32.7234 46.8154 26.6567 52.6594 26.6567 59.7226C26.6567 66.7236 32.5815 72.3994 39.8897 72.3994H84.3776C93.7537 72.3994 101.355 65.1185 101.355 56.1361C101.355 46.059 91.8831 38.3862 81.4619 40.1158Z"
        fill="url(#paint0_linear_1_4070)" />
    <path
        d="M36.6333 88.1669C35.9946 87.7985 35.7758 86.9818 36.1443 86.343L41.7978 76.5508C42.1662 75.9121 42.9829 75.6933 43.6216 76.0618C44.2604 76.4303 44.4791 77.2469 44.1107 77.8857L38.4572 87.6779C38.0887 88.3167 37.2721 88.5354 36.6333 88.1669Z"
        fill="#78D7FF" />
    <path
        d="M43.7002 98.2596C43.0615 97.8911 42.8427 97.0744 43.2112 96.4357L48.8647 86.6435C49.2331 86.0047 50.0498 85.786 50.6885 86.1544C51.3273 86.5229 51.546 87.3396 51.1776 87.9783L45.5241 97.7706C45.1556 98.4093 44.339 98.6281 43.7002 98.2596Z"
        fill="#78D7FF" />
    <path
        d="M60.1914 90.2504C59.5527 89.8819 59.3339 89.0653 59.7024 88.4265L65.3559 78.6343C65.7243 77.9955 66.541 77.7768 67.1797 78.1453C67.8185 78.5137 68.0373 79.3304 67.6688 79.9691L62.0153 89.7614C61.6459 90.4001 60.8292 90.6189 60.1914 90.2504Z"
        fill="#78D7FF" />
    <path
        d="M66.5776 100.712C65.9389 100.343 65.7201 99.5264 66.0886 98.8876L71.7421 89.0954C72.1106 88.4567 72.9272 88.2379 73.566 88.6064C74.2047 88.9749 74.4235 89.7915 74.055 90.4303L68.4015 100.222C68.0321 100.861 67.2164 101.08 66.5776 100.712Z"
        fill="#78D7FF" />
    <path
        d="M81.7588 91.2557C81.1201 90.8872 80.9013 90.0705 81.2698 89.4318L86.9232 79.6396C87.2917 79.0008 88.1084 78.7821 88.7471 79.1505C89.3859 79.519 89.6046 80.3357 89.2362 80.9744L83.5827 90.7666C83.2142 91.4054 82.3976 91.6242 81.7588 91.2557Z"
        fill="#78D7FF" />
    <defs>
        <linearGradient id="paint0_linear_1_4070" x1="26.6566" y1="49.3814" x2="101.355"
            y2="49.3814" gradientUnits="userSpaceOnUse">
            <stop stop-color="white" />
            <stop offset="0.0776" stop-color="#E4F5FD" />
            <stop offset="0.1791" stop-color="#C9EBFC" />
            <stop offset="0.2895" stop-color="#B4E3FB" />
            <stop offset="0.4114" stop-color="#A5DDFA" />
            <stop offset="0.554" stop-color="#9CDAF9" />
            <stop offset="0.767" stop-color="#99D9F9" />
        </linearGradient>
    </defs>
</svg>