<svg width="105" height="105" viewBox="0 0 105 105" fill="none" xmlns="http://www.w3.org/2000/svg">
    <path
        d="M38.5327 59.8704C38.5327 59.8704 38.5366 59.8704 38.5415 59.8704L38.5327 59.8792C38.5327 59.8753 38.5327 59.8753 38.5327 59.8704Z"
        fill="#F5C606" />
    <path
        d="M49.0775 41.0871C46.3514 42.6747 43.985 44.8554 42.2146 47.426C40.9818 49.2693 40.0251 51.277 39.3718 53.376C38.7924 55.4439 38.5279 57.5731 38.5328 59.711C35.3614 59.6507 32.1764 60.6803 29.7011 62.6014C28.7619 63.3325 27.9268 64.1852 27.2171 65.1282C23.02 62.1639 20.2812 57.2746 20.2812 51.7446C20.2812 42.7059 27.6108 35.3753 36.6506 35.3753C41.6225 35.3753 46.0743 37.591 49.0775 41.0871Z"
        fill="#F5C606" />
    <path
        d="M37.1856 33.1236C37.7174 33.1188 38.1432 32.6832 38.1383 32.1514L38.009 19.0916C38.0042 18.5597 37.5686 18.1339 37.0368 18.1388C36.505 18.1436 36.0792 18.5792 36.084 19.111L36.2133 32.1709C36.2192 32.7027 36.6537 33.1285 37.1856 33.1236Z"
        fill="#F5C606" />
    <path
        d="M37.0841 70.4016C36.5523 70.4016 36.1216 70.8322 36.1216 71.3641V84.6767C36.1216 85.2085 36.5523 85.6392 37.0841 85.6392C37.6159 85.6392 38.0466 85.2085 38.0466 84.6767V71.3641C38.0466 70.8322 37.6159 70.4016 37.0841 70.4016Z"
        fill="#F5C606" />
    <path
        d="M18.0121 51.7913C18.0073 51.2595 17.5717 50.8336 17.0399 50.8385L4.28631 50.9649C3.75451 50.9697 3.32868 51.4053 3.33354 51.9371C3.3384 52.4689 3.77395 52.8947 4.30576 52.8899L17.0594 52.7635C17.5912 52.7577 18.018 52.3231 18.0121 51.7913Z"
        fill="#F5C606" />
    <path
        d="M55.29 51.8885C55.29 52.4203 55.7207 52.851 56.2525 52.851H69.8724C70.4042 52.851 70.8349 52.4203 70.8349 51.8885C70.8349 51.3567 70.4042 50.926 69.8724 50.926H56.2525C55.7217 50.926 55.29 51.3577 55.29 51.8885Z"
        fill="#F5C606" />
    <path
        d="M23.7502 38.4155C24.1226 38.0363 24.1168 37.4267 23.7366 37.0544L14.5462 28.0438C14.167 27.6714 13.5575 27.6773 13.1851 28.0574C12.8127 28.4366 12.8186 29.0462 13.1987 29.4185L22.3891 38.4291C22.7693 38.8005 23.3788 38.7946 23.7502 38.4155Z"
        fill="#F5C606" />
    <path
        d="M49.9565 64.7607C49.5803 65.137 49.5803 65.7456 49.9565 66.1218L59.5883 75.7536C59.9646 76.1299 60.5732 76.1299 60.9494 75.7536C61.3257 75.3774 61.3257 74.7688 60.9494 74.3925L51.3176 64.7607C50.9423 64.3854 50.3328 64.3854 49.9565 64.7607Z"
        fill="#F5C606" />
    <path
        d="M23.678 65.1545C23.2989 64.7821 22.6893 64.7879 22.3169 65.1681L13.2393 74.4275C12.8669 74.8067 12.8728 75.4163 13.2529 75.7886C13.6321 76.161 14.2417 76.1552 14.614 75.775L23.6917 66.5156C24.064 66.1354 24.0572 65.5258 23.678 65.1545Z"
        fill="#F5C606" />
    <path
        d="M50.1128 38.8607C50.489 39.2369 51.0976 39.2369 51.4739 38.8607L60.9501 29.3844C61.3264 29.0082 61.3264 28.3996 60.9501 28.0233C60.5739 27.6471 59.9653 27.6471 59.589 28.0233L50.1128 37.4996C49.7365 37.8758 49.7365 38.4854 50.1128 38.8607Z"
        fill="#F5C606" />
    <path
        d="M81.6449 54.3735C78.806 46.3293 70.8678 40.5358 61.5121 40.5358C49.6695 40.5358 39.9949 49.8429 40.272 61.3696C32.5963 61.1149 26.4907 66.9968 26.4907 74.1037C26.4907 81.1494 32.4534 86.8612 39.8082 86.8612H84.5791C94.0154 86.8612 101.665 79.5336 101.665 70.4949C101.666 60.3556 92.1332 52.6332 81.6449 54.3735Z"
        fill="url(#paint0_linear_1_4133)" />
    <defs>
        <linearGradient id="paint0_linear_1_4133" x1="26.4914" y1="63.6986" x2="101.665"
            y2="63.6986" gradientUnits="userSpaceOnUse">
            <stop stop-color="white" />
            <stop offset="0.0776" stop-color="#E4F5FD" />
            <stop offset="0.1791" stop-color="#C9EBFC" />
            <stop offset="0.2895" stop-color="#B4E3FB" />
            <stop offset="0.4114" stop-color="#A5DDFA" />
            <stop offset="0.554" stop-color="#9CDAF9" />
            <stop offset="0.767" stop-color="#99D9F9" />
        </linearGradient>
    </defs>
</svg>