<svg width="105" height="105" viewBox="0 0 105 105" fill="none" xmlns="http://www.w3.org/2000/svg">
    <path
        d="M95.5411 72.7261L86.6472 67.5908L93.652 64.6722C95.6947 63.8215 96.6591 61.4765 95.8084 59.4349C94.9587 57.3932 92.6137 56.4288 90.572 57.2785L77.9186 62.5518L60.509 52.5L77.9176 42.4492L90.572 47.7225C92.6088 48.5722 94.9568 47.6107 95.8094 45.5661C96.6591 43.5244 95.6937 41.1794 93.652 40.3287L86.6472 37.4092L95.542 32.2739C97.4573 31.1675 98.1136 28.7185 97.0082 26.8032C95.9008 24.8869 93.4518 24.2317 91.5375 25.3371L82.6426 30.4724L83.6168 22.9454C83.9016 20.7521 82.3529 18.7435 80.1595 18.4596C77.9594 18.1757 75.9576 19.7235 75.6727 21.9168L73.912 35.5114L56.5044 45.5632V25.4615L67.3972 17.1403C69.155 15.7976 69.4914 13.2844 68.1487 11.5267C66.8051 9.76889 64.2919 9.4325 62.5351 10.7761L56.5044 15.3835V5.11194C56.5044 2.90014 54.7116 1.10736 52.4998 1.10736C50.288 1.10736 48.4952 2.90014 48.4952 5.11194V15.3825L42.4636 10.7751C40.7077 9.43347 38.1926 9.76792 36.85 11.5267C35.5073 13.2844 35.8437 15.7976 37.6025 17.1403L48.4952 25.4625V45.5632L31.0866 35.5124L29.3269 21.9178C29.043 19.7244 27.0393 18.1776 24.8401 18.4606C22.6468 18.7444 21.099 20.7531 21.3829 22.9464L22.358 30.4724L13.4641 25.3371C11.5488 24.2317 9.09885 24.8869 7.99343 26.8032C6.88801 28.7185 7.54426 31.1675 9.45954 32.2739L18.3544 37.4092L11.3495 40.3287C9.3069 41.1794 8.34246 43.5244 9.19315 45.5661C10.0458 47.6146 12.3966 48.5703 14.4295 47.7225L27.084 42.4492L44.4907 52.5L27.082 62.5508L14.4286 57.2775C12.385 56.4278 10.0419 57.3922 9.19121 59.4339C8.34051 61.4756 9.30496 63.8206 11.3466 64.6712L18.3525 67.5908L9.45857 72.7261C7.54329 73.8325 6.88704 76.2815 7.99246 78.1968C9.10079 80.115 11.5488 80.7674 13.4632 79.6629L22.357 74.5276L21.3819 82.0546C21.098 84.2479 22.6458 86.2565 24.8391 86.5404C27.0257 86.8233 29.0401 85.2833 29.3259 83.0832L31.0857 69.4886L48.4943 59.4378V79.5394L37.6015 87.8617C35.8427 89.2043 35.5073 91.7175 36.849 93.4753C38.1916 95.2331 40.7058 95.5685 42.4626 94.2258L48.4943 89.6185V99.889C48.4943 102.101 50.287 103.894 52.4988 103.894C54.7107 103.894 56.5034 102.101 56.5034 99.889V89.6185L62.5332 94.2258C64.2909 95.5685 66.8041 95.2321 68.1477 93.4753C69.4904 91.7175 69.154 89.2043 67.3972 87.8617L56.5034 79.5394V59.4368L73.9111 69.4867L75.6718 83.0822C75.9566 85.2814 77.9691 86.8233 80.1586 86.5394C82.3519 86.2556 83.8997 84.2469 83.6158 82.0536L82.6407 74.5267L91.5355 79.6619C93.4518 80.7683 95.8998 80.1121 97.0062 78.1958C98.1136 76.2806 97.4564 73.8315 95.5411 72.7261Z"
        fill="url(#paint0_linear_1_4155)" />
    <defs>
        <linearGradient id="paint0_linear_1_4155" x1="7.4551" y1="52.5" x2="97.5445" y2="52.5"
            gradientUnits="userSpaceOnUse">
            <stop stop-color="white" />
            <stop offset="0.0776" stop-color="#E4F5FD" />
            <stop offset="0.1791" stop-color="#C9EBFC" />
            <stop offset="0.2895" stop-color="#B4E3FB" />
            <stop offset="0.4114" stop-color="#A5DDFA" />
            <stop offset="0.554" stop-color="#9CDAF9" />
            <stop offset="0.767" stop-color="#99D9F9" />
        </linearGradient>
    </defs>
</svg>