<svg width="105" height="105" viewBox="0 0 105 105" fill="none" xmlns="http://www.w3.org/2000/svg">
    <path
        d="M62.9885 25.0055C59.7879 15.9357 50.8386 9.40332 40.2891 9.40332C26.9375 9.40332 16.0282 19.8965 16.3413 32.8932C7.68656 32.6073 0.803223 39.2379 0.803223 47.2519C0.803223 55.196 7.52614 61.635 15.8182 61.635H66.297C76.936 61.635 85.5606 53.373 85.5606 43.1822C85.5616 31.7498 74.8136 23.0436 62.9885 25.0055Z"
        fill="url(#paint0_linear_1_4193)" />
    <path
        d="M6.18828 79.5715C5.38425 79.1068 5.10814 78.0792 5.57287 77.2751L12.6934 64.9415C13.1581 64.1375 14.1858 63.8614 14.9898 64.3261C15.7938 64.7908 16.0699 65.8185 15.6052 66.6225L8.48467 78.9561C8.01995 79.7601 6.99231 80.0353 6.18828 79.5715Z"
        fill="#78D7FF" />
    <path
        d="M15.0892 92.4281C14.2851 91.9634 14.009 90.9358 14.4737 90.1318L21.5943 77.7981C22.059 76.9941 23.0867 76.718 23.8907 77.1827C24.6947 77.6475 24.9708 78.6751 24.5061 79.4791L17.3856 91.8127C16.9208 92.6168 15.8932 92.8919 15.0892 92.4281Z"
        fill="#78D7FF" />
    <path
        d="M35.8577 82.3404C35.0537 81.8757 34.7776 80.848 35.2423 80.044L42.3629 67.7104C42.8276 66.9064 43.8552 66.6302 44.6592 67.095C45.4633 67.5597 45.7394 68.5873 45.2747 69.3913L38.1541 81.725C37.6904 82.529 36.6617 82.8051 35.8577 82.3404Z"
        fill="#78D7FF" />
    <path
        d="M43.9007 95.3711C43.0967 94.9064 42.8205 93.8788 43.2853 93.0748L50.4058 80.7411C50.8705 79.9371 51.8982 79.661 52.7022 80.1257C53.5062 80.5904 53.7823 81.6181 53.3176 82.4221L46.1971 94.7557C45.7333 95.5597 44.7047 95.8349 43.9007 95.3711Z"
        fill="#78D7FF" />
    <path
        d="M59.4134 89.037C58.6093 88.5723 58.3332 87.5447 58.798 86.7406L65.9185 74.407C66.3832 73.603 67.4109 73.3269 68.2149 73.7916C69.0189 74.2563 69.295 75.284 68.8303 76.088L61.7098 88.4216C61.246 89.2256 60.2174 89.5018 59.4134 89.037Z"
        fill="#78D7FF" />
    <path
        d="M82.3078 68.317H60.6428C59.761 68.317 59.0454 69.0326 59.0454 69.9144C59.0454 70.7962 59.761 71.5117 60.6428 71.5117H76.4511H81.0925C82.4381 71.5117 83.7603 71.956 84.7879 72.8233C86.0586 73.8956 86.186 74.9554 86.0343 75.876C85.7504 77.6815 84.1881 79.0679 82.3078 79.0679C80.7765 79.0679 79.4562 78.151 78.8632 76.8366C78.6065 76.2669 78.0689 75.8751 77.4437 75.8751H77.294C76.2207 75.8751 75.4546 76.963 75.8658 77.9547C76.9149 80.4805 79.4057 82.2616 82.3068 82.2616C85.9507 82.2616 88.9529 79.447 89.2514 75.8751C89.2669 75.6806 89.2796 75.4852 89.2796 75.2898C89.2796 73.8966 88.8674 72.5997 88.1586 71.5108C86.9181 69.5916 84.7597 68.317 82.3078 68.317Z"
        fill="url(#paint1_linear_1_4193)" />
    <path
        d="M93.2297 46.688C88.5825 47.2743 84.9736 51.238 84.784 55.9193C84.7646 56.3879 84.7792 56.8497 84.8249 57.3008C84.9046 58.0873 85.5744 58.6823 86.3649 58.6823H86.466C87.4003 58.6823 88.0876 57.8627 87.9972 56.9323C87.9097 56.0311 88.0118 55.0773 88.3628 54.1129C89.1979 51.8184 91.2814 50.1297 93.7071 49.8468C97.6475 49.3879 101.003 52.4688 101.003 56.3208C101.003 57.153 100.84 57.9502 100.552 58.6833C99.6026 61.1109 97.245 62.8376 94.4858 62.8376H87.2933H48.0642C47.1824 62.8376 46.4678 63.5522 46.4678 64.434C46.4678 65.3158 47.1824 66.0304 48.0642 66.0304H94.4858C97.3354 66.0304 99.9011 64.7986 101.678 62.8386C102.734 61.6729 103.51 60.2534 103.906 58.6843C104.094 57.9279 104.197 57.1375 104.197 56.3218C104.197 50.5507 99.1408 45.9423 93.2297 46.688Z"
        fill="url(#paint2_linear_1_4193)" />
    <defs>
        <linearGradient id="paint0_linear_1_4193" x1="0.803582" y1="35.5194" x2="85.5613"
            y2="35.5194" gradientUnits="userSpaceOnUse">
            <stop stop-color="white" />
            <stop offset="0.0776" stop-color="#E4F5FD" />
            <stop offset="0.1791" stop-color="#C9EBFC" />
            <stop offset="0.2895" stop-color="#B4E3FB" />
            <stop offset="0.4114" stop-color="#A5DDFA" />
            <stop offset="0.554" stop-color="#9CDAF9" />
            <stop offset="0.767" stop-color="#99D9F9" />
        </linearGradient>
        <linearGradient id="paint1_linear_1_4193" x1="59.0454" y1="75.29" x2="89.2804" y2="75.29"
            gradientUnits="userSpaceOnUse">
            <stop stop-color="white" />
            <stop offset="0.0776" stop-color="#E4F5FD" />
            <stop offset="0.1791" stop-color="#C9EBFC" />
            <stop offset="0.2895" stop-color="#B4E3FB" />
            <stop offset="0.4114" stop-color="#A5DDFA" />
            <stop offset="0.554" stop-color="#9CDAF9" />
            <stop offset="0.767" stop-color="#99D9F9" />
        </linearGradient>
        <linearGradient id="paint2_linear_1_4193" x1="46.468" y1="56.3188" x2="104.197" y2="56.3188"
            gradientUnits="userSpaceOnUse">
            <stop stop-color="white" />
            <stop offset="0.0776" stop-color="#E4F5FD" />
            <stop offset="0.1791" stop-color="#C9EBFC" />
            <stop offset="0.2895" stop-color="#B4E3FB" />
            <stop offset="0.4114" stop-color="#A5DDFA" />
            <stop offset="0.554" stop-color="#9CDAF9" />
            <stop offset="0.767" stop-color="#99D9F9" />
        </linearGradient>
    </defs>
</svg>