<svg width="105" height="105" viewBox="0 0 105 105" fill="none" xmlns="http://www.w3.org/2000/svg">
    <path
        d="M63.8632 39.3157C60.8784 30.8564 52.5309 24.7645 42.693 24.7645C30.2408 24.7645 20.0665 34.5509 20.3582 46.6725C12.2868 46.4052 5.86719 52.5895 5.86719 60.0639C5.86719 67.4722 12.137 73.4786 19.8711 73.4786H66.95C76.8725 73.4786 84.9157 65.7738 84.9157 56.2684C84.9147 45.606 74.8911 37.486 63.8632 39.3157Z"
        fill="url(#paint0_linear_1_4093)" />
    <path
        d="M99.1327 37.3188C95.5899 41.7083 90.441 44.7475 84.5776 45.5438C83.9271 44.5045 83.1678 43.539 82.3123 42.6602C82.3074 42.6514 82.2987 42.6417 82.2938 42.6368C78.3806 38.3707 72.3198 35.9995 65.9031 36.9931C64.892 34.3107 63.3355 31.8714 61.3628 29.8064C61.3862 29.8385 61.4134 29.8706 61.4406 29.9027C61.322 29.7695 61.1976 29.646 61.0789 29.5186C61.111 29.5507 61.1382 29.5828 61.1703 29.61C61.1937 29.6333 61.216 29.6557 61.2394 29.679C60.6531 29.0247 60.0221 28.4015 59.3494 27.825C59.0246 26.3054 58.8555 24.7265 58.8555 23.1107C58.8555 12.5145 66.1335 3.61668 75.9646 1.14432C72.8292 5.03029 70.9528 9.96918 70.9528 15.3524C70.9528 27.862 81.0912 38.0003 93.6007 38.0003C95.5082 38.0013 97.3623 37.7631 99.1327 37.3188Z"
        fill="#FEB81A" />
    <path
        d="M18.3195 90.3564C17.6419 89.9656 17.4105 89.0993 17.8013 88.4217L23.7989 78.0335C24.1898 77.3558 25.056 77.1245 25.7337 77.5153C26.4113 77.9061 26.6427 78.7724 26.2519 79.45L20.2542 89.8382C19.8634 90.5158 18.9971 90.7472 18.3195 90.3564Z"
        fill="#78D7FF" />
    <path
        d="M25.817 101.186C25.1394 100.795 24.908 99.9289 25.2989 99.2513L31.2965 88.8631C31.6873 88.1854 32.5536 87.954 33.2312 88.3449C33.9089 88.7357 34.1402 89.602 33.7494 90.2796L27.7518 100.668C27.3609 101.345 26.4947 101.577 25.817 101.186Z"
        fill="#78D7FF" />
    <path
        d="M43.3117 92.6888C42.634 92.2979 42.4027 91.4317 42.7935 90.754L48.7911 80.3658C49.182 79.6882 50.0482 79.4568 50.7258 79.8477C51.4035 80.2385 51.6349 81.1047 51.244 81.7824L45.2464 92.1706C44.8546 92.8482 43.9883 93.0796 43.3117 92.6888Z"
        fill="#78D7FF" />
    <path
        d="M50.0871 103.665C49.4094 103.274 49.178 102.408 49.5689 101.73L55.5665 91.3422C55.9573 90.6646 56.8236 90.4332 57.5012 90.824C58.1789 91.2149 58.4103 92.0811 58.0194 92.7588L52.0218 103.147C51.63 103.824 50.7637 104.056 50.0871 103.665Z"
        fill="#78D7FF" />
    <path
        d="M66.1916 93.6328C65.5139 93.242 65.2825 92.3757 65.6734 91.6981L71.671 81.3099C72.0618 80.6322 72.9281 80.4009 73.6057 80.7917C74.2834 81.1825 74.5148 82.0488 74.1239 82.7264L68.1263 93.1146C67.7354 93.7922 66.8692 94.0246 66.1916 93.6328Z"
        fill="#78D7FF" />
    <defs>
        <linearGradient id="paint0_linear_1_4093" x1="5.8667" y1="49.1212" x2="84.9151" y2="49.1212"
            gradientUnits="userSpaceOnUse">
            <stop stop-color="white" />
            <stop offset="0.0776" stop-color="#E4F5FD" />
            <stop offset="0.1791" stop-color="#C9EBFC" />
            <stop offset="0.2895" stop-color="#B4E3FB" />
            <stop offset="0.4114" stop-color="#A5DDFA" />
            <stop offset="0.554" stop-color="#9CDAF9" />
            <stop offset="0.767" stop-color="#99D9F9" />
        </linearGradient>
    </defs>
</svg>