<svg width="105" height="105" viewBox="0 0 105 105" fill="none" xmlns="http://www.w3.org/2000/svg">
    <path
        d="M59.7616 81.4888C60.1543 81.9204 60.5996 82.3045 61.0838 82.634C61.0459 82.6379 61.008 82.6379 60.9691 82.634C44.6513 82.3356 31.5078 68.6224 31.5078 51.7514C31.5078 51.1865 31.5234 50.6295 31.5535 50.0724H37.3003C42.9178 50.0724 47.4717 45.4815 47.4717 39.8164C47.4717 37.0932 46.4314 34.649 44.7505 32.832C43.5731 31.4747 42.0525 30.4422 40.3375 29.8618C44.103 26.0011 48.8581 23.1564 54.1781 21.7827C50.0248 27.0832 47.5398 33.8246 47.5398 41.1697C47.5398 52.8782 53.866 63.0632 63.1906 68.3054C62.2534 68.5961 61.3686 69.0589 60.6035 69.6792C59.1705 70.8332 58.1642 72.4928 57.7986 74.2895L57.8025 74.2933C57.6771 74.8504 57.612 75.4309 57.612 76.0239C57.612 78.1375 58.4277 80.0606 59.7616 81.4888Z"
        fill="#FEB81A" />
    <path
        d="M34.2279 29.9221C32.6062 25.1883 28.0679 21.7778 22.7197 21.7778C15.9501 21.7778 10.4201 27.2553 10.5786 34.0394C6.19096 33.8897 2.70068 37.3508 2.70068 41.5343C2.70068 45.6808 6.10929 49.0428 10.3132 49.0428H35.905C41.2989 49.0428 45.671 44.73 45.671 39.41C45.6719 33.4425 40.2236 28.8983 34.2279 29.9221Z"
        fill="url(#paint0_linear_1_4124)" />
    <path
        d="M90.8539 64.1015C89.2312 59.3668 84.6939 55.9572 79.3457 55.9572C72.5761 55.9572 67.0461 61.4347 67.2046 68.2189C62.8169 68.0692 59.3267 71.5303 59.3267 75.7137C59.3267 79.8603 62.7353 83.2222 66.9392 83.2222H92.531C97.9249 83.2222 102.297 78.9094 102.297 73.5894C102.298 67.6219 96.8496 63.0778 90.8539 64.1015Z"
        fill="url(#paint1_linear_1_4124)" />
    <defs>
        <linearGradient id="paint0_linear_1_4124" x1="2.70138" y1="35.4104" x2="45.6723"
            y2="35.4104" gradientUnits="userSpaceOnUse">
            <stop stop-color="white" />
            <stop offset="0.0776" stop-color="#E4F5FD" />
            <stop offset="0.1791" stop-color="#C9EBFC" />
            <stop offset="0.2895" stop-color="#B4E3FB" />
            <stop offset="0.4114" stop-color="#A5DDFA" />
            <stop offset="0.554" stop-color="#9CDAF9" />
            <stop offset="0.767" stop-color="#99D9F9" />
        </linearGradient>
        <linearGradient id="paint1_linear_1_4124" x1="59.3272" y1="69.5896" x2="102.298"
            y2="69.5896" gradientUnits="userSpaceOnUse">
            <stop stop-color="white" />
            <stop offset="0.0776" stop-color="#E4F5FD" />
            <stop offset="0.1791" stop-color="#C9EBFC" />
            <stop offset="0.2895" stop-color="#B4E3FB" />
            <stop offset="0.4114" stop-color="#A5DDFA" />
            <stop offset="0.554" stop-color="#9CDAF9" />
            <stop offset="0.767" stop-color="#99D9F9" />
        </linearGradient>
    </defs>
</svg>