<svg width="105" height="105" viewBox="0 0 105 105" fill="none" xmlns="http://www.w3.org/2000/svg">
    <path
        d="M38.6187 45.466C38.6187 45.466 38.6225 45.466 38.6274 45.466L38.6187 45.4747C38.6187 45.4699 38.6187 45.4699 38.6187 45.466Z"
        fill="#F5C606" />
    <path
        d="M49.0993 26.7983C46.3897 28.3762 44.0379 30.5443 42.2792 33.0983C41.0532 34.93 40.1033 36.926 39.4539 39.0114C38.8773 41.0667 38.6148 43.1822 38.6197 45.3075C35.4678 45.2472 32.3022 46.271 29.8425 48.1804C28.9092 48.9076 28.0789 49.7544 27.374 50.6917C23.2032 47.7458 20.481 42.8867 20.481 37.3907C20.481 28.4074 27.7658 21.1225 36.7492 21.1225C41.69 21.1215 46.1146 23.3236 49.0993 26.7983Z"
        fill="#F5C606" />
    <path
        d="M37.2798 18.8835C37.8077 18.8786 38.2316 18.446 38.2268 17.9171L38.0984 4.93695C38.0936 4.40903 37.6609 3.98514 37.132 3.99C36.6041 3.99486 36.1802 4.4275 36.1851 4.95639L36.3134 17.9365C36.3193 18.4644 36.7519 18.8883 37.2798 18.8835Z"
        fill="#F5C606" />
    <path
        d="M37.1798 55.9319C36.6519 55.9319 36.2231 56.3597 36.2231 56.8886V70.1196C36.2231 70.6475 36.6509 71.0763 37.1798 71.0763C37.7077 71.0763 38.1365 70.6485 38.1365 70.1196V56.8886C38.1365 56.3597 37.7077 55.9319 37.1798 55.9319Z"
        fill="#F5C606" />
    <path
        d="M18.2254 37.4364C18.2206 36.9085 17.7879 36.4846 17.2591 36.4895L4.58419 36.6149C4.05628 36.6197 3.63239 37.0524 3.63725 37.5803C3.64211 38.1082 4.07475 38.5321 4.60364 38.5272L17.2785 38.4018C17.8074 38.397 18.2313 37.9643 18.2254 37.4364Z"
        fill="#F5C606" />
    <path
        d="M55.2739 37.5327C55.2739 38.0606 55.7017 38.4893 56.2306 38.4893H69.7659C70.2938 38.4893 70.7225 38.0615 70.7225 37.5327C70.7225 37.0047 70.2948 36.576 69.7659 36.576H56.2306C55.7017 36.577 55.2739 37.0047 55.2739 37.5327Z"
        fill="#F5C606" />
    <path
        d="M23.9285 24.1422C24.298 23.765 24.2921 23.1593 23.9149 22.7899L14.7809 13.8347C14.4037 13.4653 13.798 13.4711 13.4285 13.8483C13.0591 14.2256 13.0649 14.8313 13.4421 15.2007L22.5762 24.1558C22.9524 24.5253 23.5581 24.5195 23.9285 24.1422Z"
        fill="#F5C606" />
    <path
        d="M49.9724 50.3261C49.599 50.6994 49.599 51.3051 49.9724 51.6785L59.5449 61.251C59.9182 61.6243 60.5239 61.6243 60.8972 61.251C61.2706 60.8776 61.2706 60.2719 60.8972 59.8986L51.3247 50.3261C50.9514 49.9528 50.3467 49.9528 49.9724 50.3261Z"
        fill="#F5C606" />
    <path
        d="M23.8563 50.716C23.4791 50.3465 22.8734 50.3524 22.504 50.7296L13.4817 59.9317C13.1123 60.3089 13.1181 60.9146 13.4953 61.284C13.8726 61.6535 14.4783 61.6477 14.8477 61.2704L23.8699 52.0684C24.2394 51.6921 24.2335 51.0864 23.8563 50.716Z"
        fill="#F5C606" />
    <path
        d="M50.1279 24.5856C50.5012 24.9589 51.1069 24.9589 51.4803 24.5856L60.8982 15.1676C61.2715 14.7943 61.2715 14.1886 60.8982 13.8153C60.5248 13.4419 59.9191 13.4419 59.5458 13.8153L50.1279 23.2332C49.7536 23.6065 49.7536 24.2122 50.1279 24.5856Z"
        fill="#F5C606" />
    <path
        d="M81.4657 40.0031C78.6453 32.0075 70.7557 26.25 61.4574 26.25C49.6877 26.25 40.0724 35.4997 40.3485 46.9554C32.7205 46.7026 26.6528 52.5476 26.6528 59.6118C26.6528 66.6137 32.5785 72.2906 39.8887 72.2906H84.3834C93.7614 72.2906 101.363 65.0086 101.363 56.0253C101.363 45.9472 91.8889 38.2735 81.4657 40.0031Z"
        fill="url(#paint0_linear_1_4224)" />
    <path
        d="M36.6314 88.0619C35.9926 87.6935 35.7739 86.8768 36.1423 86.2381L41.7968 76.4439C42.1652 75.8051 42.9819 75.5864 43.6207 75.9549C44.2594 76.3233 44.4782 77.14 44.1097 77.7788L38.4552 87.5729C38.0858 88.2117 37.2691 88.4304 36.6314 88.0619Z"
        fill="#78D7FF" />
    <path
        d="M43.6992 98.2712C43.0605 97.9028 42.8417 97.0861 43.2102 96.4473L48.8646 86.6532C49.2331 86.0144 50.0498 85.7957 50.6885 86.1642C51.3273 86.5326 51.546 87.3493 51.1776 87.988L45.5231 97.7822C45.1546 98.421 44.338 98.6397 43.6992 98.2712Z"
        fill="#78D7FF" />
    <path
        d="M66.5796 100.608C65.9409 100.24 65.7221 99.4233 66.0906 98.7846L71.745 88.9904C72.1135 88.3517 72.9302 88.1329 73.5689 88.5014C74.2077 88.8698 74.4264 89.6865 74.0579 90.3253L68.4035 100.119C68.035 100.758 67.2184 100.977 66.5796 100.608Z"
        fill="#78D7FF" />
    <path
        d="M81.7637 91.1507C81.1249 90.7822 80.9062 89.9655 81.2747 89.3268L86.9291 79.5326C87.2976 78.8939 88.1142 78.6751 88.753 79.0436C89.3917 79.4121 89.6105 80.2287 89.242 80.8675L83.5876 90.6617C83.2191 91.3004 82.4024 91.5192 81.7637 91.1507Z"
        fill="#78D7FF" />
    <path d="M62.0122 87.3775H55.7822L59.4339 73.817H65.6649L62.0122 87.3775Z" fill="#F5C606" />
    <path d="M57.0645 101.009L62.8949 83.1862H70.6201L57.0645 101.009Z" fill="#F5C606" />
    <defs>
        <linearGradient id="paint0_linear_1_4224" x1="26.6525" y1="49.27" x2="101.363" y2="49.27"
            gradientUnits="userSpaceOnUse">
            <stop stop-color="white" />
            <stop offset="0.0776" stop-color="#E4F5FD" />
            <stop offset="0.1791" stop-color="#C9EBFC" />
            <stop offset="0.2895" stop-color="#B4E3FB" />
            <stop offset="0.4114" stop-color="#A5DDFA" />
            <stop offset="0.554" stop-color="#9CDAF9" />
            <stop offset="0.767" stop-color="#99D9F9" />
        </linearGradient>
    </defs>
</svg>