<svg width="105" height="105" viewBox="0 0 105 105" fill="none" xmlns="http://www.w3.org/2000/svg">
    <path
        d="M63.5228 39.9652C64.7906 38.01 65.5314 35.6777 65.5314 33.179C65.5314 32.8232 65.512 32.4703 65.4819 32.1213C64.9442 25.7056 59.5542 20.649 53.0014 20.649C47.8798 20.649 43.4698 23.7388 41.5302 28.1507C40.7067 30.0242 42.1398 32.1203 44.1863 32.1203C45.316 32.1203 46.3446 31.4611 46.8025 30.4286C47.8574 28.0496 50.2374 26.3881 53.0014 26.3881C56.3867 26.3881 59.1935 28.876 59.701 32.1213C59.8605 33.1353 59.8702 34.1853 59.2324 35.5542C57.9666 38.2745 55.1821 39.9652 52.1809 39.9652H42.482H14.0844C12.4996 39.9652 11.2144 41.2495 11.2144 42.8352C11.2144 44.4199 12.4987 45.7052 14.0844 45.7052H53.0024C57.4114 45.7042 61.2926 43.4175 63.5228 39.9652Z"
        fill="url(#paint0_linear_1_4188)" />
    <path
        d="M65.0317 59.4738H26.1068C24.5221 59.4738 23.2368 60.759 23.2368 62.3438C23.2368 63.9285 24.5221 65.2138 26.1068 65.2138H54.5083H65.0317C68.7728 65.2138 71.8178 68.2568 71.8178 72.0038C71.8178 72.3635 71.7828 72.7144 71.7264 73.0547C71.217 76.299 68.4102 78.7899 65.0317 78.7899C62.2647 78.7899 59.8828 77.1245 58.826 74.7445C58.3681 73.7139 57.3404 73.0557 56.2126 73.0557C54.1681 73.0557 52.736 75.1499 53.5575 77.0224C55.4961 81.4382 59.9081 84.5299 65.0317 84.5299C71.5796 84.5299 76.9715 79.4733 77.5092 73.0557C77.5374 72.7067 77.5588 72.3557 77.5588 72.0047C77.5588 69.5013 76.8179 67.1718 75.5453 65.2147C73.315 61.7624 69.4378 59.4738 65.0317 59.4738Z"
        fill="url(#paint1_linear_1_4188)" />
    <path
        d="M86.9117 20.4711C77.2926 20.4711 69.4662 28.2956 69.4662 37.9186C69.4662 38.5059 69.4953 39.0853 69.5527 39.657C69.6947 41.0813 70.9041 42.1624 72.3362 42.1624H72.482C74.1601 42.1624 75.4201 40.6982 75.2558 39.0279C75.2198 38.6624 75.2013 38.2929 75.2013 37.9186C75.2013 31.4602 80.4591 26.2063 86.9117 26.2063C93.3683 26.2063 98.6202 31.4602 98.6202 37.9186C98.6202 39.4139 98.3276 40.847 97.8123 42.1624C96.106 46.5238 91.8691 49.6271 86.9127 49.6271H73.9899H3.50771C1.92396 49.6271 0.640625 50.9104 0.640625 52.4942C0.640625 54.0779 1.92396 55.3613 3.50771 55.3613H86.9117C92.0315 55.3613 96.6408 53.1485 99.8335 49.6261C101.73 47.532 103.124 44.9809 103.834 42.1614C104.173 40.8022 104.359 39.3828 104.359 37.9177C104.359 28.2956 96.5309 20.4711 86.9117 20.4711Z"
        fill="url(#paint2_linear_1_4188)" />
    <defs>
        <linearGradient id="paint0_linear_1_4188" x1="11.215" y1="33.1765" x2="65.5322" y2="33.1765"
            gradientUnits="userSpaceOnUse">
            <stop stop-color="white" />
            <stop offset="0.0776" stop-color="#E4F5FD" />
            <stop offset="0.1791" stop-color="#C9EBFC" />
            <stop offset="0.2895" stop-color="#B4E3FB" />
            <stop offset="0.4114" stop-color="#A5DDFA" />
            <stop offset="0.554" stop-color="#9CDAF9" />
            <stop offset="0.767" stop-color="#99D9F9" />
        </linearGradient>
        <linearGradient id="paint1_linear_1_4188" x1="23.2376" y1="72.0012" x2="77.5592"
            y2="72.0012" gradientUnits="userSpaceOnUse">
            <stop stop-color="white" />
            <stop offset="0.0776" stop-color="#E4F5FD" />
            <stop offset="0.1791" stop-color="#C9EBFC" />
            <stop offset="0.2895" stop-color="#B4E3FB" />
            <stop offset="0.4114" stop-color="#A5DDFA" />
            <stop offset="0.554" stop-color="#9CDAF9" />
            <stop offset="0.767" stop-color="#99D9F9" />
        </linearGradient>
        <linearGradient id="paint2_linear_1_4188" x1="0.640499" y1="37.9166" x2="104.359"
            y2="37.9166" gradientUnits="userSpaceOnUse">
            <stop stop-color="white" />
            <stop offset="0.0776" stop-color="#E4F5FD" />
            <stop offset="0.1791" stop-color="#C9EBFC" />
            <stop offset="0.2895" stop-color="#B4E3FB" />
            <stop offset="0.4114" stop-color="#A5DDFA" />
            <stop offset="0.554" stop-color="#9CDAF9" />
            <stop offset="0.767" stop-color="#99D9F9" />
        </linearGradient>
    </defs>
</svg>